<?xml version="1.0" standalone="no"?>
<!DOCTYPE svg PUBLIC "-//W3C//DTD SVG 1.1//EN" "http://www.w3.org/Graphics/SVG/1.1/DTD/svg11.dtd" >
<svg>
<metadata>
Created by FontForge 20110222 at Fri Oct 17 17:01:06 2014
 By Nassar Zeitoune,,,
Copyright (c) 2006 by Martin Anderson - mdta Design. All rights reserved.
</metadata>
<defs>
<font id="TPHylian-WiiRegular" horiz-adv-x="405" >
  <font-face 
    font-family="TP Hylian - Wii Regular"
    font-weight="400"
    font-stretch="normal"
    units-per-em="1000"
    panose-1="0 0 0 0 0 0 0 0 0 0"
    ascent="750"
    descent="-250"
    x-height="513"
    cap-height="651"
    bbox="-159 -195 794 778"
    underline-thickness="50"
    underline-position="-50"
    unicode-range="U+0020-007A"
  />
<missing-glyph horiz-adv-x="393" 
 />
    <glyph glyph-name=".notdef" horiz-adv-x="393" 
 />
    <glyph glyph-name="B" unicode="B" horiz-adv-x="531" 
d="M379 54h14c0 -27 -45 -80 -135 -80c-101 0 -205 50 -205 178s72 168 178 168c37 0 81 -12 100 -25v341h76c41 0 82 0 104 13h15c-23 -37 -79 -52 -119 -52v-436c0 -36 9 -59 9 -59v-13c-41 0 -85 35 -85 72v63c-18 14 -47 29 -90 29c-68 0 -113 -9 -113 -95
c0 -182 251 -145 251 -104z" />
    <glyph glyph-name="C" unicode="C" horiz-adv-x="446" 
d="M38 130h73c41 0 80 0 102 13h14c-15 -26 -59 -50 -113 -51c0 -21 12 -79 114 -79c41 0 119 11 117 101v61c0 61 -23 57 -121 100c-103 46 -125 136 -125 136s32 -7 73 -7s80 0 102 12h14c-14 -23 -52 -45 -100 -49l1 -1c-1 -44 76 -99 154 -127c25 -9 75 -14 75 -14v-102
c0 -89 -54 -135 -190 -135c-180 0 -190 115 -190 142z" />
    <glyph glyph-name="D" unicode="D" horiz-adv-x="485" 
d="M139 -1h-75v637h75c41 0 81 0 104 13h14c-16 -26 -62 -52 -118 -52v0v-399c34 25 93 38 165 38c112 0 165 -70 165 -92l-17 1c-13 34 -58 61 -148 61c-74 0 -165 -39 -165 -151v-56zM170 79c0 40 72 72 140 72s141 -32 141 -72c0 -41 -73 -73 -141 -73s-140 32 -140 73z
M310 23c24 0 49 25 49 56c0 30 -25 55 -49 55c-23 0 -48 -25 -48 -55c0 -31 25 -56 48 -56z" />
    <glyph glyph-name="E" unicode="E" horiz-adv-x="461" 
d="M56 130h74c40 0 80 0 102 13h14c-16 -26 -59 -50 -113 -51c0 -21 12 -79 113 -79c41 0 119 11 117 101l1 102c0 62 -24 57 -122 101c-102 46 -125 136 -125 136s32 -7 74 -7c40 0 80 0 102 12h14c-15 -23 -52 -46 -100 -50h1c-1 -45 76 -99 154 -127c25 -9 75 -14 75 -14
v-144c0 -89 -54 -135 -191 -135c-180 0 -190 115 -190 142zM185 165l-160 73l160 72v-145z" />
    <glyph glyph-name="F" unicode="F" horiz-adv-x="403" 
d="M280 0h-124v142c-69 30 -95 88 -95 88h14c-6 0 28 -32 81 -52v240c-54 48 -122 98 -140 98v14c22 0 387 -224 387 -246c0 -123 -89 -160 -157 -160h-16v-41c0 -73 29 -68 50 -69v-14zM235 504v-14c-79 -7 -200 63 -200 167c0 0 31 -7 72 -7c40 0 79 0 101 12h13
c-14 -23 -53 -46 -102 -49c11 -83 86 -109 116 -109zM230 383v-219c74 0 111 40 111 129c0 9 -50 48 -111 90z" />
    <glyph glyph-name="G" unicode="G" horiz-adv-x="617" 
d="M372 456v-60h7c84 0 152 59 152 132s-68 132 -152 132s-152 -59 -152 -132c0 -48 29 -90 74 -113v71h57c32 0 63 0 81 9h11c-11 -18 -41 -35 -78 -39zM300 0h-102v14c38 3 102 -4 102 67l1 305c-82 21 -142 72 -147 133c-63 14 -173 75 -173 126l1 -1c6 -1 34 -6 71 -6
c39 0 78 0 99 12h14c-12 -19 -41 -38 -77 -46c9 -21 35 -40 70 -44c21 68 112 119 220 119c124 0 225 -67 225 -151s-101 -151 -225 -151h-7v-296c0 -71 64 -64 102 -67v-14h-102h-72z" />
    <glyph glyph-name="H" unicode="H" horiz-adv-x="645" 
d="M198 292h-73v344h73c41 0 81 0 103 12h14c-16 -26 -61 -51 -117 -51v-305zM602 0h-211v90c0 110 -92 145 -231 145v17c152 0 207 -3 250 -40v424h73c41 0 80 2 102 14h15c-16 -26 -61 -53 -117 -53v-514c0 -73 66 -65 119 -69v-14zM57 95c0 38 33 69 104 69
c70 0 104 -31 104 -69s-47 -69 -104 -69c-58 0 -104 31 -104 69z" />
    <glyph glyph-name="I" unicode="I" horiz-adv-x="312" 
d="M43 -15h-14c50 61 92 99 92 210v219c0 110 65 187 152 237h14c-51 -61 -92 -99 -92 -210v-219c0 -111 -65 -187 -152 -237z" />
    <glyph glyph-name="J" unicode="J" horiz-adv-x="452" 
d="M0 94c0 38 29 69 91 69s91 -31 91 -69s-41 -69 -91 -69s-91 31 -91 69zM401 -195h-14c-87 50 -152 126 -152 237v594h74c40 0 80 1 102 13h14c-16 -26 -61 -52 -116 -52v-582c0 -111 41 -149 92 -210z" />
    <glyph glyph-name="K" unicode="K" horiz-adv-x="523" 
d="M415 611v-611s-40 -18 -165 -18s-167 18 -167 18c0 203 117 218 117 218h15s-59 -41 -59 -193c0 0 35 -10 94 -10s91 11 91 11v624h74c41 0 80 0 102 12h14c-16 -26 -61 -51 -116 -51zM269 348v-15c-83 -7 -210 66 -210 175c0 0 33 -7 76 -7c42 0 82 0 105 12h15
c-13 -20 -44 -40 -85 -48c8 -89 68 -117 99 -117z" />
    <glyph glyph-name="L" unicode="L" horiz-adv-x="528" 
d="M166 290v-265s35 -10 94 -10c58 0 91 11 91 11v624h73c41 0 80 0 102 12h14c-16 -26 -60 -51 -116 -51v-611s-40 -18 -164 -18c-126 0 -168 18 -168 18v329h74c40 0 80 0 102 12h14c-16 -26 -61 -51 -116 -51zM286 452l-235 106l235 107v-213z" />
    <glyph glyph-name="M" unicode="M" horiz-adv-x="695" 
d="M684 0h-277v14c38 3 102 -4 102 67v325h72c40 0 79 0 100 12h14c-15 -25 -59 -49 -114 -49v-288c0 -71 65 -64 103 -67v-14zM269 0h-175v636h72c55 0 68 -38 68 -93c0 -54 85 -142 85 -142h-14s-104 117 -139 115v-435c0 -71 65 -64 103 -67v-14zM439 91l-136 73l136 72
v-145z" />
    <glyph glyph-name="N" unicode="N" horiz-adv-x="703" 
d="M58 560c0 49 88 89 171 89s171 -40 171 -89s-88 -89 -171 -89s-171 40 -171 89zM337 0h-173v286c0 111 110 129 204 129c27 0 61 -9 96 -17v21c0 108 63 182 148 231h13c-49 -59 -90 -96 -90 -204v-66c67 -18 124 -38 124 -38v-14s-58 16 -124 30v-277
c0 -71 65 -64 102 -67v-14h-102h-71h-102v14c37 3 102 -4 102 67v292c-36 7 -69 11 -92 11c-88 0 -137 -17 -137 -125v-178c0 -71 65 -64 102 -67v-14zM229 492c28 0 59 31 59 68c0 38 -31 68 -59 68c-29 0 -59 -30 -59 -68c0 -37 30 -68 59 -68z" />
    <glyph glyph-name="O" unicode="O" horiz-adv-x="641" 
d="M232 604h24c-14 -15 -26 -47 -30 -74c-12 -84 80 -153 206 -153c38 0 74 6 107 17h12c-41 -17 -86 -29 -140 -29c-137 0 -249 63 -249 141c0 38 27 73 70 98zM44 0v14c80 0 107 50 107 108c0 139 125 179 218 179c150 0 248 -60 248 -163c0 -93 -86 -146 -224 -146
c-81 0 -101 26 -101 49h34c0 -8 16 -15 88 -15c69 0 113 44 113 124c0 93 -74 130 -143 130s-152 -41 -152 -156c0 -93 -73 -124 -188 -124z" />
    <glyph glyph-name="P" unicode="P" horiz-adv-x="476" 
d="M440 0h-275v14c38 3 102 -4 102 66v244c-31 9 -72 17 -94 46c-83 17 -144 75 -144 144c0 84 89 151 198 151s197 -67 197 -151c0 -83 -88 -150 -197 -150h-1c19 -19 53 -33 112 -37v-247c0 -70 64 -63 102 -66v-14zM224 501h14s-32 -29 -32 -78c0 -14 2 -27 7 -39
c4 -1 9 -1 14 -1c74 0 133 59 133 131c0 73 -59 132 -133 132s-134 -59 -134 -132c0 -48 26 -89 65 -112c-1 6 -2 13 -2 21c0 49 68 78 68 78z" />
    <glyph glyph-name="Q" unicode="Q" horiz-adv-x="449" 
d="M272 0h-174v371c0 22 13 37 30 48c-47 23 -76 58 -76 97c0 68 88 123 198 123c7 0 14 0 21 -1c-7 5 -15 8 -23 8c-67 0 -166 61 -166 109l5 -1c9 -1 30 -5 56 -5c33 0 66 0 84 10h12c-9 -14 -28 -28 -54 -35c4 -27 24 -60 63 -60c10 2 48 -4 76 -34
c73 -18 125 -62 125 -114c0 -68 -89 -123 -199 -123c-21 0 -41 2 -60 6c-11 -11 -20 -28 -20 -52v-266c0 -71 64 -64 102 -67v-14zM228 423c7 -1 15 -2 22 -2c67 0 121 43 121 95c0 19 -7 36 -19 51c1 -6 1 -11 2 -17c2 -78 -92 -111 -126 -127zM178 440c5 1 9 2 9 2
c19 15 112 51 112 115c0 19 -3 35 -7 48c-13 4 -27 6 -42 6c-67 0 -121 -43 -121 -95c0 -31 19 -59 49 -76z" />
    <glyph glyph-name="R" unicode="R" horiz-adv-x="663" 
d="M130 541v-290c0 -56 60 -80 123 -80h166v-14s-44 -3 -143 -3c-96 0 -201 10 -201 111v290c0 58 67 83 153 83h174v-21h-174c-55 0 -98 -35 -98 -76zM400 380l-161 86l161 86v-172zM620 0h-14c-87 50 -152 126 -152 237v401h73c41 0 81 0 103 12h14
c-16 -26 -61 -51 -117 -51v-390c0 -110 42 -148 93 -209z" />
    <glyph glyph-name="S" unicode="S" horiz-adv-x="482" 
d="M192 165c0 38 31 68 97 68s97 -30 97 -68s-43 -68 -97 -68c-53 0 -97 30 -97 68zM105 291v-144c0 -116 53 -138 147 -138c87 0 160 14 160 14v-14s-61 -28 -164 -28c-101 0 -220 18 -220 137v212h76c175 0 312 41 312 229c0 29 -16 66 -58 66c-75 0 -139 -28 -209 -28
c-63 0 -103 33 -103 54h89s-13 -30 29 -30c71 0 131 44 200 44c63 0 103 -36 103 -99c0 -157 -176 -274 -362 -275z" />
    <glyph glyph-name="T" unicode="T" horiz-adv-x="430" 
d="M203 0h-102v14c38 3 102 -4 102 67v409c-103 19 -239 73 -239 144c0 0 31 -7 72 -7c40 0 78 0 100 12h14c-12 -19 -41 -38 -78 -46c15 -37 77 -66 131 -81v126h72c40 0 79 0 100 12h14c-16 -25 -60 -50 -114 -50v-101h149v-13s-53 -4 -149 -4v-401c0 -71 65 -64 103 -67
v-14h-103h-72z" />
    <glyph glyph-name="U" unicode="U" horiz-adv-x="517" 
d="M484 0h-283v14c38 4 104 -3 104 69v48c-12 -1 -25 -1 -39 -1c-97 0 -210 14 -210 128v394h74c40 0 80 2 102 14h14c-16 -26 -61 -53 -116 -53v-327c0 -111 50 -128 140 -128h35v494h74c40 0 80 2 102 14h14c-16 -26 -61 -53 -116 -53v-450c27 3 43 5 43 5v-14
s-15 -6 -43 -13v-58c0 -72 66 -65 105 -69v-14z" />
    <glyph glyph-name="V" unicode="V" horiz-adv-x="522" 
d="M328 426c0 34 30 62 93 62c64 0 94 -28 94 -62s-42 -62 -94 -62s-93 28 -93 62zM237 0h-178v14c37 3 103 4 100 66l-27 521v-1c-53 0 -97 24 -112 49h14c21 -12 59 -12 98 -12h70zM421 0h-122l45 318h64c40 0 79 0 100 12h14c-15 -25 -59 -49 -114 -49l-35 -214
c-4 -54 30 -53 48 -53v-14z" />
    <glyph glyph-name="W" unicode="W" horiz-adv-x="805" 
d="M223 0h-105v14c38 4 105 -3 105 69v512c-252 72 -382 157 -382 183h128c0 -15 173 -134 327 -181v-514c0 -72 67 -65 105 -69v-14h-105h-73zM541 163h-163l81 136zM604 0h-105v14c39 4 105 -3 105 69v554h74c41 0 80 0 102 13h14c-16 -26 -61 -51 -116 -51v-516
c0 -72 66 -65 105 -69v-14h-105h-74z" />
    <glyph glyph-name="Z" unicode="X" horiz-adv-x="515" 
d="M40 62c0 41 65 75 125 75c61 0 125 -34 125 -75c0 -42 -64 -76 -125 -76c-60 0 -125 34 -125 76zM165 4c21 0 43 26 43 58c0 31 -22 57 -43 57s-43 -26 -43 -57c0 -32 22 -58 43 -58zM314 544v-12c-70 -6 -212 30 -212 113c0 1 28 -6 64 -6s70 0 89 11h13
c-11 -17 -37 -34 -71 -41c11 -56 91 -65 117 -65zM476 2h-12c6 0 -249 228 -249 470c0 0 28 -6 64 -6s80 0 99 11h13c-11 -17 -45 -33 -77 -40c4 -205 162 -435 162 -435z" />
    <glyph glyph-name="Y" unicode="Y" 
d="M352 0h-227v14c38 4 104 -4 104 69v261c-127 108 -227 240 -227 306c31 -27 62 -37 107 -41c-5 -32 -10 -72 8 -100c40 -58 72 -102 130 -155h56c27 0 66 0 88 13h14c-16 -26 -60 -51 -102 -51v-233c0 -73 28 -68 49 -69v-14z" />
    <glyph glyph-name="X" unicode="Z" horiz-adv-x="492" 
d="M47 268h69c39 0 76 0 97 12h13c-14 -22 -51 -44 -97 -48c14 -70 85 -126 114 -139v545h69c39 0 76 0 97 12h13c-15 -25 -57 -48 -110 -48v-336c93 0 146 -93 146 -152s-44 -119 -121 -119c-49 0 -94 26 -94 26c-84 31 -196 133 -196 247zM312 207v-151c4 -1 8 -1 11 -1
c50 0 70 41 70 68s-24 84 -81 84z" />
    <glyph glyph-name="exclam" unicode="!" horiz-adv-x="406" 
d="M281 -40h-61l-50 62v614h70c38 0 76 3 97 15h13c-15 -25 -58 -51 -110 -51v-554s137 108 137 190h14c0 -110 -110 -276 -110 -276zM59 86c-32 0 -59 40 -59 89c0 50 27 90 59 90c33 0 60 -29 60 -90c0 -60 -27 -89 -60 -89z" />
    <glyph glyph-name="space" unicode=" " horiz-adv-x="393" 
 />
    <glyph glyph-name="period" unicode="." horiz-adv-x="236" 
d="M59 13c0 22 19 39 59 39c41 0 60 -17 60 -39s-27 -39 -60 -39c-32 0 -59 17 -59 39z" />
    <glyph glyph-name="comma" unicode="," horiz-adv-x="182" 
d="M161 -86v-10c-62 -6 -156 49 -156 129c0 0 24 -5 56 -5c31 0 61 0 78 10h11c-11 -19 -42 -36 -80 -39c9 -64 68 -85 91 -85z" />
    <glyph glyph-name="colon" unicode=":" horiz-adv-x="269" 
d="M75 13c0 22 19 39 59 39c41 0 60 -17 60 -39s-27 -39 -60 -39c-32 0 -59 17 -59 39zM75 269c0 22 19 39 59 39c41 0 60 -17 60 -39s-27 -39 -60 -39c-32 0 -59 17 -59 39z" />
    <glyph glyph-name="semicolon" unicode=";" horiz-adv-x="178" 
d="M12 269c0 22 19 39 59 39c41 0 60 -17 60 -39s-27 -39 -60 -39c-32 0 -59 17 -59 39zM178 -86v-10c-62 -6 -156 49 -156 129c0 0 24 -5 56 -5c31 0 61 0 78 10h11c-11 -19 -42 -36 -80 -39c9 -64 68 -85 91 -85z" />
    <glyph glyph-name="a" unicode="a" horiz-adv-x="525" 
d="M256 0h-236v12c32 2 88 -4 88 57v473h61c34 0 66 0 85 10h12c-14 -21 -51 -42 -97 -42v-441c0 -61 55 -55 87 -57v-12zM516 0h-236v12c33 2 87 -4 87 57v276h61c34 0 67 0 85 10h12c-14 -21 -51 -41 -97 -41v-245c0 -61 55 -55 88 -57v-12zM316 88l-102 54l102 54v-108z
" />
    <glyph glyph-name="b" unicode="b" 
d="M278 46h11c0 -23 -38 -68 -114 -68c-86 0 -175 42 -175 151s62 143 152 143c31 0 69 -10 85 -21v290h64c35 0 70 0 89 11h12c-19 -32 -67 -45 -101 -45v-370c0 -31 8 -50 8 -50v-11c-35 0 -72 29 -72 61v53c-16 12 -40 25 -77 25c-58 0 -96 -8 -96 -81
c0 -154 214 -123 214 -88z" />
    <glyph glyph-name="c" unicode="c" horiz-adv-x="360" 
d="M22 113h62c35 0 68 0 86 11h12c-12 -22 -50 -43 -96 -44c0 -18 11 -67 97 -67c35 0 101 9 100 86v52c0 52 -20 48 -103 85c-88 39 -106 115 -106 115s27 -6 62 -6c34 0 68 0 86 11h12c-12 -20 -44 -39 -85 -42l1 -1c-1 -37 65 -84 131 -108c21 -7 64 -12 64 -12v-86
c0 -76 -46 -115 -162 -115c-153 0 -161 98 -161 121z" />
    <glyph glyph-name="d" unicode="d" horiz-adv-x="452" 
d="M158 -1h-64v542h64c34 0 68 0 88 11h12c-14 -22 -53 -45 -100 -45v0v-339c28 22 79 33 140 33c95 0 140 -60 140 -79l-14 1c-11 29 -50 52 -126 52c-63 0 -140 -33 -140 -128v-48zM184 67c0 34 61 61 119 61s120 -27 120 -61c0 -35 -62 -62 -120 -62s-119 27 -119 62z
M303 20c20 0 42 21 42 47s-22 47 -42 47s-41 -21 -41 -47s21 -47 41 -47z" />
    <glyph glyph-name="e" unicode="e" horiz-adv-x="352" 
d="M5 113h63c34 0 68 0 87 11h12c-14 -22 -50 -43 -96 -44c0 -18 10 -67 96 -67c35 0 101 9 99 86l1 87c0 52 -20 48 -104 86c-86 39 -106 115 -106 115s27 -6 63 -6c34 0 68 0 87 10h12c-13 -19 -45 -39 -85 -42v0c0 -38 65 -84 131 -108c22 -8 64 -12 64 -12v-122
c0 -76 -46 -115 -162 -115c-153 0 -162 98 -162 121zM115 142l-136 62l136 62v-124z" />
    <glyph glyph-name="f" unicode="f" horiz-adv-x="338" 
d="M233 0h-105v121c-59 25 -81 74 -81 74h12c-5 0 24 -27 69 -44v204c-46 41 -104 84 -119 84v11c19 0 329 -190 329 -209c0 -104 -76 -136 -133 -136h-14v-34c0 -63 25 -58 42 -59v-12zM195 428v-12c-67 -5 -170 54 -170 142c0 0 27 -6 61 -6s68 0 86 11h11
c-12 -20 -45 -39 -86 -42c9 -71 73 -93 98 -93zM191 326v-187c63 0 94 34 94 110c0 8 -42 41 -94 77z" />
    <glyph glyph-name="g" unicode="g" horiz-adv-x="546" 
d="M333 390v-51h6c71 0 129 50 129 112s-58 112 -129 112c-72 0 -130 -50 -130 -112c0 -41 25 -77 63 -96v60h49c27 0 53 0 69 8h9c-9 -15 -35 -30 -66 -33zM271 0h-86v12c32 2 86 -4 86 57l1 261c-69 18 -120 61 -125 113c-53 12 -147 64 -147 107l1 -1c5 0 29 -5 61 -5
c33 0 66 0 84 11h12c-11 -17 -35 -33 -66 -40c8 -17 30 -34 60 -37c17 58 95 101 187 101c105 0 191 -57 191 -128c0 -72 -86 -128 -191 -128h-6v-254c0 -61 54 -55 86 -57v-12h-86h-62z" />
    <glyph glyph-name="h" unicode="h" horiz-adv-x="524" 
d="M154 248h-62v293h62c35 0 69 0 88 10h12c-14 -22 -52 -44 -100 -44v-259zM498 0h-180v76c0 94 -78 124 -196 124v14c129 0 176 -2 212 -34v361h63c34 0 68 1 86 11h13c-14 -22 -52 -45 -99 -45v-436c0 -63 56 -56 101 -59v-12zM34 81c0 32 28 58 89 58
c59 0 88 -26 88 -58c0 -33 -40 -59 -88 -59c-49 0 -89 26 -89 59z" />
    <glyph glyph-name="i" unicode="i" horiz-adv-x="352" 
d="M74 -13h-12c42 52 78 84 78 179v186c0 93 55 159 129 201h12c-43 -52 -78 -84 -78 -178v-186c0 -95 -55 -159 -129 -202z" />
    <glyph glyph-name="j" unicode="j" horiz-adv-x="378" 
d="M0 80c0 32 24 59 77 59s77 -27 77 -59s-34 -59 -77 -59c-42 0 -77 27 -77 59zM341 -166h-12c-74 43 -129 107 -129 202v505h62c34 0 68 0 87 11h12c-14 -22 -52 -45 -99 -45v-494c0 -95 35 -127 79 -179z" />
    <glyph glyph-name="k" unicode="k" horiz-adv-x="416" 
d="M307 519v-519s-34 -15 -140 -15s-142 15 -142 15c0 173 99 185 99 185h13s-50 -35 -50 -164c0 0 30 -8 80 -8s77 9 77 9v530h63c35 0 68 0 87 11h12c-14 -22 -52 -44 -99 -44zM183 296v-13c-70 -6 -178 56 -178 149c0 0 28 -6 64 -6s70 0 89 10h13
c-11 -17 -37 -34 -72 -41c7 -75 58 -99 84 -99z" />
    <glyph glyph-name="l" unicode="l" horiz-adv-x="460" 
d="M130 246v-225s30 -8 80 -8c49 0 77 9 77 9v530h63c34 0 68 0 86 11h12c-13 -22 -51 -44 -98 -44v-519s-34 -15 -140 -15c-107 0 -143 15 -143 15v280h63c34 0 68 0 87 10h12c-14 -22 -52 -44 -99 -44zM232 384l-200 90l200 91v-181z" />
    <glyph glyph-name="m" unicode="m" horiz-adv-x="603" 
d="M594 0h-236v12c33 2 87 -4 87 57v276h61c34 0 67 0 85 10h12c-13 -21 -50 -41 -97 -41v-245c0 -61 55 -55 88 -57v-12zM241 0h-149v541h61c47 0 58 -33 58 -79s72 -121 72 -121h-11s-89 99 -119 98v-370c0 -61 56 -55 88 -57v-12zM385 77l-115 62l115 62v-124z" />
    <glyph glyph-name="n" unicode="n" horiz-adv-x="578" 
d="M38 476c0 42 75 76 146 76c70 0 145 -34 145 -76s-75 -76 -145 -76c-71 0 -146 34 -146 76zM275 0h-147v243c0 94 94 110 174 110c23 0 52 -8 81 -15v18c0 92 54 155 126 196h11c-41 -50 -76 -81 -76 -173v-56c57 -15 105 -32 105 -32v-12s-49 13 -105 25v-235
c0 -61 55 -55 86 -57v-12h-86h-61h-86v12c31 2 86 -4 86 57v248c-30 6 -58 9 -78 9c-75 0 -116 -14 -116 -106v-151c0 -61 55 -55 86 -57v-12zM184 418c23 0 50 27 50 58c0 32 -27 58 -50 58c-25 0 -51 -26 -51 -58c0 -31 26 -58 51 -58z" />
    <glyph glyph-name="o" unicode="o" horiz-adv-x="501" 
d="M173 513h20c-12 -12 -22 -40 -25 -63c-10 -71 68 -130 175 -130c32 0 63 6 91 15h10c-35 -15 -73 -25 -119 -25c-116 0 -212 54 -212 120c0 32 23 62 60 83zM13 0v12c68 0 91 42 91 92c0 118 106 152 185 152c128 0 211 -51 211 -139c0 -79 -73 -124 -190 -124
c-69 0 -86 22 -86 42h29c0 -7 13 -13 75 -13c58 0 96 37 96 105c0 80 -63 111 -122 111s-129 -35 -129 -133c0 -79 -62 -105 -160 -105z" />
    <glyph glyph-name="p" unicode="p" horiz-adv-x="376" 
d="M351 0h-233v12c32 2 86 -4 86 56v207c-26 8 -61 15 -80 39c-70 15 -122 64 -122 123c0 71 76 128 168 128c93 0 168 -57 168 -128s-75 -128 -168 -128h-1c17 -16 46 -28 96 -31v-210c0 -60 54 -54 86 -56v-12zM168 426h12s-28 -25 -28 -66c0 -12 2 -23 6 -34h12
c63 0 113 50 113 111c0 62 -50 112 -113 112s-114 -50 -114 -112c0 -41 23 -76 56 -95c-1 5 -2 11 -2 18c0 41 58 66 58 66z" />
    <glyph glyph-name="q" unicode="q" horiz-adv-x="374" 
d="M224 0h-148v315c0 19 11 32 25 41c-40 20 -64 49 -64 83c0 57 74 104 168 104c6 0 12 0 18 -1c-6 5 -13 7 -20 7c-57 0 -141 52 -141 93l4 -1c8 -1 26 -4 48 -4c28 0 56 0 71 8h11c-8 -12 -24 -24 -46 -30c3 -23 20 -51 53 -51c9 2 41 -3 65 -29c62 -15 106 -52 106 -96
c0 -58 -76 -105 -169 -105c-18 0 -35 2 -51 5c-9 -9 -17 -24 -17 -44v-226c0 -61 54 -55 87 -57v-12zM186 360c6 -1 13 -2 19 -2c57 0 103 36 103 81c0 16 -6 30 -16 43c0 -5 0 -9 1 -15c2 -66 -78 -94 -107 -107zM144 374c4 1 7 2 7 2c16 12 96 43 96 97c0 17 -3 30 -6 41
c-11 4 -23 5 -36 5c-57 0 -103 -36 -103 -80c0 -27 16 -51 42 -65z" />
    <glyph glyph-name="r" unicode="r" horiz-adv-x="565" 
d="M92 460v-247c0 -47 51 -68 105 -68h141v-12s-37 -2 -121 -2c-82 0 -171 8 -171 94v247c0 49 57 70 130 70h148v-18h-148c-47 0 -84 -29 -84 -64zM322 323l-137 73l137 73v-146zM509 0h-12c-74 42 -129 107 -129 201v341h62c35 0 69 0 87 10h12c-13 -22 -52 -43 -99 -43
v-331c0 -94 36 -126 79 -178z" />
    <glyph glyph-name="s" unicode="s" 
d="M160 140c0 33 27 58 83 58s82 -25 82 -58c0 -32 -36 -58 -82 -58c-45 0 -83 26 -83 58zM86 247v-122c0 -99 45 -117 125 -117c74 0 136 12 136 12v-12s-52 -24 -139 -24c-86 0 -187 15 -187 116v180h64c149 0 266 35 266 195c0 25 -14 56 -50 56c-63 0 -118 -24 -177 -24
c-54 0 -88 28 -88 46h76s-11 -25 24 -25c61 0 112 37 170 37c54 0 88 -30 88 -84c0 -133 -150 -233 -308 -234z" />
    <glyph glyph-name="t" unicode="t" horiz-adv-x="344" 
d="M152 0h-87v12c33 2 87 -4 87 57v347c-88 17 -203 63 -203 123c0 0 26 -6 61 -6c34 0 66 0 85 10h12c-10 -16 -35 -32 -66 -39c12 -31 65 -56 111 -69v107h61c34 0 67 0 85 10h12c-14 -21 -51 -42 -97 -42v-86h127v-11s-45 -3 -127 -3v-341c0 -61 55 -55 88 -57v-12h-88
h-61z" />
    <glyph glyph-name="u" unicode="u" horiz-adv-x="432" 
d="M406 0h-241v12c32 3 89 -3 89 59v40c-11 -1 -22 -1 -34 -1c-82 0 -178 12 -178 109v335h63c34 0 68 2 86 12h12c-13 -22 -51 -45 -98 -45v-278c0 -94 42 -109 119 -109h30v420h62c34 0 68 2 87 12h12c-14 -22 -52 -45 -99 -45v-382c23 2 37 4 37 4v-12s-13 -5 -37 -11
v-49c0 -62 57 -56 90 -59v-12z" />
    <glyph glyph-name="v" unicode="v" horiz-adv-x="442" 
d="M277 362c0 29 26 53 79 53c55 0 80 -24 80 -53s-36 -53 -80 -53s-79 24 -79 53zM200 0h-152v12c32 2 88 3 85 56l-22 443v-1c-46 0 -83 20 -96 42h12c18 -11 50 -11 84 -11h59zM356 0h-104l39 270h54c34 0 67 0 85 10h12c-13 -21 -50 -41 -97 -41l-30 -182
c-3 -46 26 -45 41 -45v-12z" />
    <glyph glyph-name="w" unicode="w" horiz-adv-x="696" 
d="M202 0h-89v12c32 3 89 -3 89 59v435c-214 61 -325 133 -325 155h109c0 -12 147 -114 278 -154v-436c0 -62 57 -56 89 -59v-12h-89h-62zM472 139h-138l69 115zM526 0h-89v12c33 3 89 -3 89 59v470h63c35 0 68 0 87 11h12c-14 -22 -52 -43 -99 -43v-438
c0 -62 56 -56 89 -59v-12h-89h-63z" />
    <glyph glyph-name="z" unicode="x" horiz-adv-x="403" 
d="M32 53c0 35 56 63 107 63c52 0 106 -28 106 -63c0 -36 -54 -65 -106 -65c-51 0 -107 29 -107 65zM139 3c18 0 36 22 36 50c0 26 -18 48 -36 48s-37 -22 -37 -48c0 -28 19 -50 37 -50zM265 462v-10c-59 -5 -180 26 -180 96c0 1 24 -5 55 -5c30 0 59 0 75 9h11
c-9 -14 -31 -28 -60 -34c9 -48 77 -56 99 -56zM403 2h-10c5 0 -212 193 -212 399c0 0 24 -5 55 -5c30 0 68 0 84 9h11c-10 -14 -38 -28 -66 -34c4 -174 138 -369 138 -369z" />
    <glyph glyph-name="y" unicode="y" horiz-adv-x="344" 
d="M299 0h-193v12c32 3 88 -4 88 59v221c-108 92 -193 204 -193 260c27 -22 53 -31 91 -34c-4 -28 -8 -62 7 -85c34 -50 61 -87 111 -132h47c23 0 56 0 75 11h12c-14 -22 -51 -43 -87 -43v-198c0 -63 24 -58 42 -59v-12z" />
    <glyph glyph-name="x" unicode="z" horiz-adv-x="547" 
d="M86 268h69c39 0 76 0 97 12h13c-14 -22 -51 -44 -97 -48c14 -70 85 -126 114 -139v545h69c39 0 76 0 97 12h13c-15 -25 -57 -48 -110 -48v-336c93 0 146 -93 146 -152s-44 -119 -121 -119c-49 0 -94 26 -94 26c-84 31 -196 133 -196 247zM351 207v-151c4 -1 8 -1 11 -1
c50 0 70 41 70 68s-24 84 -81 84z" />
    <glyph glyph-name="A" unicode="A" horiz-adv-x="625" 
d="M309 0h-278v14c38 3 103 -4 103 67v557h72c40 0 78 0 100 12h14c-16 -25 -60 -50 -114 -50v-519c0 -71 65 -64 103 -67v-14zM614 0h-277v14c38 3 102 -4 102 67v325h72c40 0 79 0 100 12h14c-16 -25 -60 -49 -114 -49v-288c0 -71 65 -64 103 -67v-14zM379 103l-120 64
l120 64v-128z" />
  </font>
</defs>
</svg>
