<?xml version="1.0" standalone="no"?>
<!DOCTYPE svg PUBLIC "-//W3C//DTD SVG 1.1//EN" "http://www.w3.org/Graphics/SVG/1.1/DTD/svg11.dtd" >
<svg>
<metadata>
Created by FontForge 20110222 at Thu Oct 16 05:45:06 2014
 By Nassar Zeitoune,,,
truefonts.blogspot.com
</metadata>
<defs>
<font id="klingonfont" horiz-adv-x="1014" >
  <font-face 
    font-family="klingon font"
    font-weight="400"
    font-stretch="normal"
    units-per-em="2048"
    panose-1="2 0 5 0 0 0 0 0 0 0"
    ascent="1638"
    descent="-410"
    x-height="1415"
    cap-height="1408"
    bbox="-424 -14 1889 1636"
    underline-thickness="150"
    underline-position="-142"
    unicode-range="U+0020-F002"
  />
<missing-glyph horiz-adv-x="1024" 
d="M100 0v1434h824v-1434h-824zM150 50h724v1334h-724v-1334zM325 1148q31 28 58 43q53 30 112 30q92 0 148 -47.5t56 -127.5q0 -49 -23 -98.5t-87 -129.5q-63 -80 -99 -132t-36 -99q0 -38 24 -133h-32q-35 97 -35 148q0 76 81.5 218t81.5 217q0 57 -33 90t-91 33
q-38 0 -69 -17q-26 -15 -56 -40v45zM389 334l57 58q11 10 20 10q10 0 22 -11l56 -60q9 -11 9 -20q0 -11 -10 -22l-56 -62q-14 -14 -21 -14q-11 0 -20 10l-61 71q-7 9 -7 18q0 10 11 22z" />
    <glyph glyph-name=".notdef" horiz-adv-x="1024" 
d="M100 0v1434h824v-1434h-824zM150 50h724v1334h-724v-1334zM325 1148q31 28 58 43q53 30 112 30q92 0 148 -47.5t56 -127.5q0 -49 -23 -98.5t-87 -129.5q-63 -80 -99 -132t-36 -99q0 -38 24 -133h-32q-35 97 -35 148q0 76 81.5 218t81.5 217q0 57 -33 90t-91 33
q-38 0 -69 -17q-26 -15 -56 -40v45zM389 334l57 58q11 10 20 10q10 0 22 -11l56 -60q9 -11 9 -20q0 -11 -10 -22l-56 -62q-14 -14 -21 -14q-11 0 -20 10l-61 71q-7 9 -7 18q0 10 11 22z" />
    <glyph glyph-name=".null" horiz-adv-x="0" 
 />
    <glyph glyph-name="nonmarkingreturn" horiz-adv-x="508" 
 />
    <glyph glyph-name="space" unicode=" " horiz-adv-x="508" 
 />
    <glyph glyph-name="space" unicode="&#xa0;" horiz-adv-x="508" 
 />
    <glyph glyph-name="exclam" unicode="!" horiz-adv-x="672" 
 />
    <glyph glyph-name="quotedbl" unicode="&#x22;" horiz-adv-x="672" 
 />
    <glyph glyph-name="numbersign" unicode="#" horiz-adv-x="1336" 
 />
    <glyph glyph-name="dollar" unicode="$" 
 />
    <glyph glyph-name="percent" unicode="%" horiz-adv-x="1610" 
 />
    <glyph glyph-name="ampersand" unicode="&#x26;" horiz-adv-x="1683" 
 />
    <glyph glyph-name="quotesingle" unicode="'" horiz-adv-x="541" 
d="M332 1413h58q115 -18 115 -115v-231q-231 -255 -231 -287l58 -288l-115 -58q-115 0 -173 346q288 360 288 633z" />
    <glyph glyph-name="parenleft" unicode="(" horiz-adv-x="758" 
 />
    <glyph glyph-name="parenright" unicode=")" horiz-adv-x="758" 
 />
    <glyph glyph-name="asterisk" unicode="*" horiz-adv-x="1024" 
 />
    <glyph glyph-name="plus" unicode="+" 
 />
    <glyph glyph-name="comma" unicode="," horiz-adv-x="557" 
d="M332 1413h58q115 -18 115 -115v-231q-231 -255 -231 -287l58 -288l-115 -58q-115 0 -173 346q288 360 288 633z" />
    <glyph glyph-name="hyphen" unicode="-" horiz-adv-x="670" 
 />
    <glyph glyph-name="hyphen" unicode="&#xad;" horiz-adv-x="670" 
 />
    <glyph glyph-name="period" unicode="." horiz-adv-x="557" 
d="M332 1413h58q115 -18 115 -115v-231q-231 -255 -231 -287l58 -288l-115 -58q-115 0 -173 346q288 360 288 633z" />
    <glyph glyph-name="slash" unicode="/" horiz-adv-x="569" 
 />
    <glyph glyph-name="zero" unicode="0" horiz-adv-x="1321" 
d="M561 785h375q255 0 375 -234q-361 -141 -516 -141h-327q-469 58 -469 187q321 188 562 188z" />
    <glyph glyph-name="one" unicode="1" 
d="M1349 1433h84v-42q-575 -125 -1096 -674q-295 -640 -295 -717h-42v84q130 1223 464 1223q606 126 885 126z" />
    <glyph glyph-name="two" unicode="2" horiz-adv-x="643" 
d="M632 1433q-379 -382 -379 -716q0 -201 253 -717h-42q-464 485 -464 843q0 409 632 590z" />
    <glyph glyph-name="three" unicode="3" horiz-adv-x="994" 
d="M394 1418h79q-158 -207 -158 -434v-78q42 0 118 -40q22 0 433 79v-79q-393 -54 -393 -354v-39l472 -473h-79q-866 498 -866 827v79q0 241 394 512z" />
    <glyph glyph-name="four" unicode="4" horiz-adv-x="1394" 
d="M885 1433h379q0 -34 -463 -295q-42 -70 -42 -211h-42q-296 187 -296 422q49 0 464 84zM211 1349h42q0 -182 1054 -1180l42 -169h-1096q-109 0 -253 506v42q269 -253 506 -253q168 63 168 126q-463 674 -463 886v42z" />
    <glyph glyph-name="five" unicode="5" horiz-adv-x="741" 
d="M200 1438h439v-40q-266 0 -359 -439q0 -80 119 -80l280 40q-200 -176 -200 -200v-40h40q20 0 160 40h40v-40q-127 0 -280 -280v-39q0 -100 80 -360h-40q-479 563 -479 1039v239q2 55 200 160z" />
    <glyph glyph-name="six" unicode="6" horiz-adv-x="1491" 
d="M0 1439h45q482 -405 809 -405q441 180 540 180h90l-225 -944v-270h-90q-154 809 -360 809h-270q-148 0 -269 -539h-90v629q0 192 -180 540z" />
    <glyph glyph-name="seven" unicode="7" horiz-adv-x="1043" 
d="M945 1438h82q-189 -281 -287 -698q0 -257 287 -658v-82q-295 215 -493 698l-123 83q0 -59 -123 -124v124l41 82l-82 41h-165l-82 -41v41q94 240 288 411h41q0 -215 287 -247q0 100 329 370z" />
    <glyph glyph-name="eight" unicode="8" horiz-adv-x="1491" 
d="M0 1438h169q99 0 212 -338l127 -85h84v42q0 184 -84 339h465q-85 -275 -85 -381h85q56 0 338 423h169q-338 -387 -338 -592v-296q0 -168 338 -550h-84l-339 296h-127v-42q85 -138 85 -212h-42q-168 43 -296 43l-212 -43v43q85 137 85 211h-127q-301 -296 -423 -296
q314 373 381 677q0 333 -381 761z" />
    <glyph glyph-name="nine" unicode="9" horiz-adv-x="1018" 
d="M441 1442h80q0 -200 480 -441v-80l-280 40q-160 -65 -160 -280v-40q0 -174 200 -641h-40q-70 40 -160 40h-120l-201 -40v40q201 371 201 601v40q0 215 -161 280h-40q-109 0 -240 -80v80q441 326 441 481z" />
    <glyph glyph-name="colon" unicode=":" horiz-adv-x="557" 
d="M332 1413h58q115 -18 115 -115v-231q-231 -255 -231 -287l58 -288l-115 -58q-115 0 -173 346q288 360 288 633z" />
    <glyph glyph-name="semicolon" unicode=";" horiz-adv-x="557" 
d="M332 1413h58q115 -18 115 -115v-231q-231 -255 -231 -287l58 -288l-115 -58q-115 0 -173 346q288 360 288 633z" />
    <glyph glyph-name="semicolon" unicode="&#x37e;" horiz-adv-x="557" 
d="M332 1413h58q115 -18 115 -115v-231q-231 -255 -231 -287l58 -288l-115 -58q-115 0 -173 346q288 360 288 633z" />
    <glyph glyph-name="less" unicode="&#x3c;" 
 />
    <glyph glyph-name="equal" unicode="=" 
 />
    <glyph glyph-name="greater" unicode="&#x3e;" 
 />
    <glyph glyph-name="question" unicode="?" horiz-adv-x="748" 
 />
    <glyph glyph-name="at" unicode="@" horiz-adv-x="2019" 
 />
    <glyph glyph-name="A" unicode="A" horiz-adv-x="1593" 
d="M1075 1433h492v-45q-627 -195 -627 -358v-90q73 -179 314 -179v-89h-493q-89 -14 -89 -90q671 -66 671 -537v-45h-44q0 224 -448 224h-851z" />
    <glyph glyph-name="B" unicode="B" horiz-adv-x="1452" 
d="M413 1423h46l46 -230h229q185 184 689 230v-92q-689 -169 -689 -551v-229q0 -138 230 -551h-46q-185 0 -459 918h-184q0 -184 -137 -184h-46q0 171 -92 276q0 59 413 413z" />
    <glyph glyph-name="C" unicode="C" horiz-adv-x="1691" 
d="M601 1433h92q232 -740 324 -740h92q455 381 509 648h46v-47q-231 -1248 -462 -1248q-77 -46 -231 -46h-93q-508 71 -508 231l462 -46h277q67 0 139 139v184h-508v278h-47q-170 0 -647 -324h-46v46q585 666 601 925z" />
    <glyph glyph-name="D" unicode="D" horiz-adv-x="1301" 
d="M571 1428h48q0 -291 666 -1047v-48q-238 -333 -761 -333v143q373 0 428 190q0 149 -333 571q-95 157 -95 286zM476 666v-47l-286 -381v-48h143v-190q-159 0 -333 143q0 126 476 523z" />
    <glyph glyph-name="E" unicode="E" horiz-adv-x="1151" 
d="M223 1428h848q-45 -268 -134 -268h-535q-223 -551 -223 -714v-44l44 -223l-223 -179v45q45 1383 223 1383z" />
    <glyph glyph-name="F" unicode="F" horiz-adv-x="1506" 
d="M0 1433q672 -45 985 -45h358l90 45l45 -90q0 -81 -179 -447h-45q0 268 -134 268h-135q-134 0 -134 -313h-134q-252 0 -314 -224q11 -175 582 -627h-89q-851 281 -851 627h-45q0 46 358 403q0 33 -358 358v45z" />
    <glyph glyph-name="G" unicode="G" horiz-adv-x="1437" 
d="M362 1401h884q69 0 177 -177v-44h-177q-442 0 -442 -531q-78 0 -89 -221q277 0 487 -221v-44q-162 88 -354 88h-44l-89 -44v44q-650 -99 -1061 -265v44q37 130 752 398q265 591 265 708q-308 146 -309 265z" />
    <glyph glyph-name="H" unicode="H" horiz-adv-x="775" 
d="M494 1438l225 -359q-449 -542 -449 -675q0 -49 134 -404q-404 294 -404 944q0 86 494 494zM135 854v-45q14 -90 90 -90h45q81 0 269 315v89q-404 0 -404 -269z" />
    <glyph glyph-name="I" unicode="I" horiz-adv-x="1170" 
d="M308 1408h220v-88q-137 0 -264 -220v-88q0 -132 352 -176q201 85 220 176v352h308q0 -494 -440 -660l-176 -220q66 -396 264 -396v-88q-297 0 -792 924v132q143 253 308 352z" />
    <glyph glyph-name="J" unicode="J" horiz-adv-x="1706" 
d="M612 1428q199 -102 561 -102h510v-51q-148 -636 -663 -1122v51q204 350 204 612v153h-204l-765 -867l-153 -102h-102q561 568 561 867v153q0 128 -204 153z" />
    <glyph glyph-name="K" unicode="K" horiz-adv-x="1223" 
d="M1186 1423q-117 -253 -664 -617l47 -94v-238q-241 -404 -569 -474q270 236 332 474q0 85 -285 285q132 0 665 522q410 142 474 142z" />
    <glyph glyph-name="L" unicode="L" horiz-adv-x="1128" 
d="M925 1433q184 -266 184 -416h-231q-232 -155 -416 -555q463 0 463 -416v-46q-243 185 -509 185h-416v46q0 71 925 1202z" />
    <glyph glyph-name="M" unicode="M" horiz-adv-x="999" 
d="M620 1418q160 -21 355 -399q-161 -532 -310 -532v45q88 162 88 354v89l-177 44q-188 0 -266 -399q76 -412 222 -576v-44q-532 347 -532 975q389 212 620 443z" />
    <glyph glyph-name="N" unicode="N" horiz-adv-x="1077" 
d="M686 1418q62 0 229 -229q0 -91 -92 -91l-274 46q-209 -89 -229 -183v-46h137l458 46l91 -183q-356 -56 -457 -138q72 -292 503 -640h-320q-509 555 -732 915q0 245 686 503z" />
    <glyph glyph-name="O" unicode="O" horiz-adv-x="1267" 
d="M0 1423q356 -89 756 -89l400 45q0 -223 89 -356h-44q-87 44 -134 44v-44l45 -311q-212 0 -400 -267l177 -445q-444 163 -444 489q0 63 311 400v178q-100 0 -756 267v89z" />
    <glyph glyph-name="P" unicode="P" horiz-adv-x="1120" 
d="M628 1438h48v-96h-48v96zM573 1337h48v-286h287q191 -96 191 -287q0 -419 -1051 -764h-48v48q418 0 764 716q-34 144 -191 191q-322 -143 -382 -143q382 406 382 525z" />
    <glyph glyph-name="Q" unicode="Q" horiz-adv-x="687" 
d="M561 1428h51l51 -255q0 -69 -255 -255q102 -167 102 -306q0 -400 -255 -612v102l51 306q-75 265 -306 510q0 48 561 510z" />
    <glyph glyph-name="R" unicode="R" horiz-adv-x="1283" 
d="M135 1438q674 -45 988 -45h45q78 0 135 -225l-224 45q-65 0 -135 -134v-135h269q-483 -304 -1213 -944v45q629 769 629 944q-292 359 -494 359v90z" />
    <glyph glyph-name="S" unicode="S" horiz-adv-x="1520" 
d="M580 1428q239 -178 402 -178h44q194 0 357 89v-45q-535 -401 -535 -580v-178q12 -74 625 -447v-44q-402 134 -670 134q-284 0 -803 -179q669 536 669 1071q-89 284 -89 357z" />
    <glyph glyph-name="T" unicode="T" horiz-adv-x="1652" 
d="M1576 1428h49v-49q-148 -252 -197 -690q49 -86 49 -197h-98q-463 0 -1379 -492v49q0 281.261 442.333 785.5l0.666992 -342.5h99q277 0 1034 936zM443 936h49v-99h-49v99z" />
    <glyph glyph-name="U" unicode="U" horiz-adv-x="1501" 
d="M1380 1428v-48q-95 -172 -95 -428q-92 48 -143 48q-330 -143 -476 -429v-47h96q213 0 571 285q0 -166 190 -333q-683 0 -1523 -476q739 1144 1380 1428z" />
    <glyph glyph-name="V" unicode="V" horiz-adv-x="1925" 
d="M1889 1428q-461 -600 -461 -1013l46 -277v-138h-46q-65 0 -415 322h-552q-182 0 -461 -276q157 829 322 829q0 -322 277 -322h46q599 0 599 322q460 553 645 553z" />
    <glyph glyph-name="W" unicode="W" horiz-adv-x="1325" 
d="M134 1433h1165q0 -124 -986 -269q-89 -207 -89 -403q0 -285 89 -761q-183 0 -313 940q45 493 134 493z" />
    <glyph glyph-name="X" unicode="X" horiz-adv-x="1213" 
d="M592 1074q164 -133 275 -133h31q132 0 244 67v-34q-402 -301 -402 -436v-133q5 -56 463 -336v-33q-274.311 101.01 -454.476 101.01q-1.76697 0 -3.52399 -0.00999451q-293 -1 -509 -83q417 403 417 752q-61 214 -61 268zM776 1636q-60 -252 -420 -683l61 -101l38 -219
q-133 -413 -424 -577q263 264 274 559q-13 78 -274 210q106 24 453 597z" />
    <glyph glyph-name="Y" unicode="Y" horiz-adv-x="1491" 
d="M789 1438h324l325 -46q-510 -708 -510 -928q139 -402 139 -464h-93q-438 223 -974 835q242 603 789 603zM464 881q33 -232 139 -232h139q0 331 139 511v92h-46q-371 0 -371 -371z" />
    <glyph glyph-name="Z" unicode="Z" horiz-adv-x="1374" 
d="M491 1428q78 -45 178 -45v-44q-166 0 -223 -491q239 0 536 402l-89 133v45h223q223 -11 223 -89q0 -83 -803 -803v-134q1 -78 357 -402h-447q-401 347 -401 669q267 157 267 224v271h-178v41q70 0 357 223zM0 1160h134q0 -89 -89 -89z" />
    <glyph glyph-name="bracketleft" unicode="[" horiz-adv-x="758" 
 />
    <glyph glyph-name="backslash" unicode="\" horiz-adv-x="569" 
 />
    <glyph glyph-name="bracketright" unicode="]" horiz-adv-x="758" 
 />
    <glyph glyph-name="asciicircum" unicode="^" 
 />
    <glyph glyph-name="underscore" unicode="_" horiz-adv-x="1024" 
 />
    <glyph glyph-name="grave" unicode="`" horiz-adv-x="1024" 
 />
    <glyph glyph-name="a" unicode="a" horiz-adv-x="1589" 
d="M1075 1433h492v-45q-627 -195 -627 -358v-90q73 -179 314 -179v-89h-493q-89 -14 -89 -90q671 -66 671 -537v-45h-44q0 224 -448 224h-851z" />
    <glyph glyph-name="b" unicode="b" horiz-adv-x="1457" 
d="M413 1423h46l46 -230h229q185 184 689 230v-92q-689 -169 -689 -551v-229q0 -138 230 -551h-46q-185 0 -459 918h-184q0 -184 -137 -184h-46q0 171 -92 276q0 59 413 413z" />
    <glyph glyph-name="c" unicode="c" horiz-adv-x="1686" 
d="M601 1433h92q232 -740 324 -740h92q455 381 509 648h46v-47q-231 -1248 -462 -1248q-77 -46 -231 -46h-93q-508 71 -508 231l462 -46h277q67 0 139 139v184h-508v278h-47q-170 0 -647 -324h-46v46q585 666 601 925z" />
    <glyph glyph-name="d" unicode="d" horiz-adv-x="1350" 
d="M571 1428h48q0 -291 666 -1047v-48q-238 -333 -761 -333v143q373 0 428 190q0 149 -333 571q-95 157 -95 286zM476 666v-47l-286 -381v-48h143v-190q-159 0 -333 143q0 126 476 523z" />
    <glyph glyph-name="e" unicode="e" horiz-adv-x="1116" 
d="M223 1428h848q-45 -268 -134 -268h-535q-223 -551 -223 -714v-44l44 -223l-223 -179v45q45 1383 223 1383z" />
    <glyph glyph-name="f" unicode="f" horiz-adv-x="1516" 
d="M0 1433q672 -45 985 -45h358l90 45l45 -90q0 -81 -179 -447h-45q0 268 -134 268h-135q-134 0 -134 -313h-134q-252 0 -314 -224q11 -175 582 -627h-89q-851 281 -851 627h-45q0 46 358 403q0 33 -358 358v45z" />
    <glyph glyph-name="g" unicode="g" horiz-adv-x="1389" 
d="M285 1418h886q69 0 178 -177v-45h-178q-443 0 -443 -531q-77 0 -88 -222q277 0 487 -221v-45q-162 89 -355 89h-44l-88 -44v44q-652 -99 -1064 -266v44q37 131 753 399q266 592 266 709q-309 147 -310 266z" />
    <glyph glyph-name="h" unicode="h" horiz-adv-x="731" 
d="M493 1433l224 -358q-448 -540 -448 -672q0 -50 134 -403q-403 293 -403 940q0 86 493 493zM134 851v-45q14 -89 90 -89h45q81 0 268 313v90q-403 0 -403 -269z" />
    <glyph glyph-name="i" unicode="i" horiz-adv-x="1189" 
d="M313 1433h224v-90q-140 0 -268 -223v-90q0 -134 358 -179q204 87 224 179v358h313q0 -503 -447 -671l-180 -224q68 -403 269 -403v-90q-302 0 -806 940v135q146 257 313 358z" />
    <glyph glyph-name="j" unicode="j" horiz-adv-x="1725" 
d="M616 1438q201 -103 565 -103h514v-51q-149 -640 -668 -1130v51q206 353 206 617v154h-206l-770 -873l-154 -103h-103q565 572 565 873v154q0 129 -205 154z" />
    <glyph glyph-name="k" unicode="k" horiz-adv-x="1213" 
d="M1186 1423q-117 -253 -664 -617l47 -94v-238q-241 -404 -569 -474q270 236 332 474q0 85 -285 285q132 0 665 522q410 142 474 142z" />
    <glyph glyph-name="l" unicode="l" horiz-adv-x="1135" 
d="M921 1428q185 -265 185 -415h-231q-232 -154 -414 -552q460 0 460 -415v-46q-242 184 -506 184h-415v46q0 71 921 1198z" />
    <glyph glyph-name="m" unicode="m" horiz-adv-x="999" 
d="M620 1418q160 -21 355 -399q-161 -532 -310 -532v45q88 162 88 354v89l-177 44q-188 0 -266 -399q76 -412 222 -576v-44q-532 347 -532 975q389 212 620 443z" />
    <glyph glyph-name="n" unicode="n" horiz-adv-x="1108" 
d="M698 1442q62 0 232 -233q0 -93 -93 -93l-279 47q-212 -90 -232 -186v-47h139l465 47l93 -186q-362 -57 -465 -140q74 -297 512 -651h-326q-518 564 -744 930q0 250 698 512z" />
    <glyph glyph-name="o" unicode="o" horiz-adv-x="1272" 
d="M0 1415q354 -89 752 -89l398 45q0 -221 88 -354h-44q-86 44 -133 44v-44l44 -310q-210 0 -398 -265l177 -442q-442 162 -442 486q0 63 310 398v177q-100 0 -752 265v89z" />
    <glyph glyph-name="p" unicode="p" horiz-adv-x="1140" 
d="M624 1437h48v-96h-48v96zM573 1337h48v-286h287q191 -96 191 -287q0 -419 -1051 -764h-48v48q418 0 764 716q-34 144 -191 191q-322 -143 -382 -143q382 406 382 525z" />
    <glyph glyph-name="q" unicode="q" horiz-adv-x="672" 
d="M561 1428h51l51 -255q0 -69 -255 -255q102 -167 102 -306q0 -400 -255 -612v102l51 306q-75 265 -306 510q0 48 561 510z" />
    <glyph glyph-name="r" unicode="r" horiz-adv-x="1321" 
d="M135 1438q674 -45 988 -45h45q78 0 135 -225l-224 45q-65 0 -135 -134v-135h269q-483 -304 -1213 -944v45q629 769 629 944q-292 359 -494 359v90z" />
    <glyph glyph-name="s" unicode="s" horiz-adv-x="1486" 
d="M580 1428q239 -178 402 -178h44q194 0 357 89v-45q-535 -401 -535 -580v-178q12 -74 625 -447v-44q-402 134 -670 134q-284 0 -803 -179q669 536 669 1071q-89 284 -89 357z" />
    <glyph glyph-name="t" unicode="t" horiz-adv-x="1647" 
d="M1576 1428h49v-49q-148 -252 -197 -690q49 -86 49 -197h-98q-463 0 -1379 -492v49q0 277 443 782v-345l99 6q291 18 1034 936zM443 936h49v-99h-49v99z" />
    <glyph glyph-name="u" unicode="u" horiz-adv-x="1540" 
d="M1378 1425v-47q-95 -173 -95 -428q-93 48 -143 48q-330 -143 -475 -428v-47h95q213 0 570 285q0 -167 190 -333q-681 0 -1520 -475q737 1141 1378 1425z" />
    <glyph glyph-name="v" unicode="v" horiz-adv-x="1881" 
d="M1889 1428q-461 -600 -461 -1013l46 -277v-138h-46q-65 0 -415 322h-552q-182 0 -461 -276q157 829 322 829q0 -322 277 -322h46q599 0 599 322q460 553 645 553z" />
    <glyph glyph-name="w" unicode="w" horiz-adv-x="1364" 
d="M134 1433h1165q0 -124 -986 -269q-89 -207 -89 -403q0 -285 89 -761q-183 0 -313 940q45 493 134 493z" />
    <glyph glyph-name="x" unicode="x" horiz-adv-x="1213" 
d="M592 1074q164 -133 275 -133h31q132 0 244 67v-34q-402 -301 -402 -436v-133q5 -56 463 -336v-33q-274 101 -454 101h-4q-290 0 -509 -83q417 403 417 752q-61 214 -61 268zM776 1636q-60 -252 -420 -683l61 -101l38 -219q-133 -413 -424 -577q263 264 274 559
q-13 78 -274 210q106 24 453 597z" />
    <glyph glyph-name="y" unicode="y" horiz-adv-x="1481" 
d="M791 1442h325l326 -47q-512 -709 -512 -930q140 -402 140 -465h-93q-439 224 -977 837q242 605 791 605zM465 884q34 -233 140 -233h139q0 332 140 512v93h-47q-372 0 -372 -372z" />
    <glyph glyph-name="z" unicode="z" horiz-adv-x="1364" 
d="M491 1428q78 -45 178 -45v-44q-166 0 -223 -491q239 0 536 402l-89 133v45h223q223 -11 223 -89q0 -83 -803 -803v-134q1 -78 357 -402h-447q-401 347 -401 669q267 157 267 224v271h-178v41q70 0 357 223zM0 1160h134q0 -89 -89 -89z" />
    <glyph glyph-name="braceleft" unicode="{" 
 />
    <glyph glyph-name="bar" unicode="|" 
 />
    <glyph glyph-name="braceright" unicode="}" 
 />
    <glyph glyph-name="asciitilde" unicode="~" 
 />
    <glyph glyph-name="exclamdown" unicode="&#xa1;" horiz-adv-x="672" 
 />
    <glyph glyph-name="cent" unicode="&#xa2;" horiz-adv-x="1139" 
 />
    <glyph glyph-name="sterling" unicode="&#xa3;" 
 />
    <glyph glyph-name="currency" unicode="&#xa4;" 
 />
    <glyph glyph-name="yen" unicode="&#xa5;" horiz-adv-x="1262" 
 />
    <glyph glyph-name="brokenbar" unicode="&#xa6;" 
 />
    <glyph glyph-name="section" unicode="&#xa7;" 
 />
    <glyph glyph-name="dieresis" unicode="&#xa8;" horiz-adv-x="1024" 
 />
    <glyph glyph-name="copyright" unicode="&#xa9;" horiz-adv-x="1674" 
 />
    <glyph glyph-name="ordfeminine" unicode="&#xaa;" horiz-adv-x="648" 
 />
    <glyph glyph-name="guillemotleft" unicode="&#xab;" horiz-adv-x="944" 
 />
    <glyph glyph-name="logicalnot" unicode="&#xac;" 
 />
    <glyph glyph-name="registered" unicode="&#xae;" horiz-adv-x="1674" 
 />
    <glyph glyph-name="macron" unicode="&#xaf;" horiz-adv-x="670" 
 />
    <glyph glyph-name="degree" unicode="&#xb0;" horiz-adv-x="674" 
 />
    <glyph glyph-name="plusminus" unicode="&#xb1;" 
 />
    <glyph glyph-name="uni00B2" unicode="&#xb2;" 
 />
    <glyph glyph-name="uni00B3" unicode="&#xb3;" 
 />
    <glyph glyph-name="acute" unicode="&#xb4;" horiz-adv-x="1024" 
 />
    <glyph glyph-name="mu" unicode="&#xb5;" horiz-adv-x="1180" 
 />
    <glyph glyph-name="paragraph" unicode="&#xb6;" horiz-adv-x="1024" 
 />
    <glyph glyph-name="periodcentered" unicode="&#xb7;" horiz-adv-x="508" 
 />
    <glyph glyph-name="periodcentered" unicode="&#x2219;" horiz-adv-x="508" 
 />
    <glyph glyph-name="cedilla" unicode="&#xb8;" horiz-adv-x="1024" 
 />
    <glyph glyph-name="uni00B9" unicode="&#xb9;" 
 />
    <glyph glyph-name="ordmasculine" unicode="&#xba;" horiz-adv-x="718" 
 />
    <glyph glyph-name="guillemotright" unicode="&#xbb;" horiz-adv-x="944" 
 />
    <glyph glyph-name="onequarter" unicode="&#xbc;" horiz-adv-x="1708" 
 />
    <glyph glyph-name="onehalf" unicode="&#xbd;" horiz-adv-x="1964" 
 />
    <glyph glyph-name="threequarters" unicode="&#xbe;" horiz-adv-x="1708" 
 />
    <glyph glyph-name="questiondown" unicode="&#xbf;" horiz-adv-x="748" 
 />
    <glyph glyph-name="Agrave" unicode="&#xc0;" horiz-adv-x="1540" 
 />
    <glyph glyph-name="Aacute" unicode="&#xc1;" horiz-adv-x="1540" 
 />
    <glyph glyph-name="Acircumflex" unicode="&#xc2;" horiz-adv-x="1540" 
 />
    <glyph glyph-name="Atilde" unicode="&#xc3;" horiz-adv-x="1540" 
 />
    <glyph glyph-name="Adieresis" unicode="&#xc4;" horiz-adv-x="1540" 
 />
    <glyph glyph-name="Aring" unicode="&#xc5;" horiz-adv-x="1540" 
 />
    <glyph glyph-name="AE" unicode="&#xc6;" horiz-adv-x="2118" 
 />
    <glyph glyph-name="Ccedilla" unicode="&#xc7;" horiz-adv-x="1399" 
 />
    <glyph glyph-name="Egrave" unicode="&#xc8;" horiz-adv-x="1151" 
 />
    <glyph glyph-name="Eacute" unicode="&#xc9;" horiz-adv-x="1151" 
 />
    <glyph glyph-name="Ecircumflex" unicode="&#xca;" horiz-adv-x="1151" 
 />
    <glyph glyph-name="Edieresis" unicode="&#xcb;" horiz-adv-x="1151" 
 />
    <glyph glyph-name="Igrave" unicode="&#xcc;" horiz-adv-x="657" 
 />
    <glyph glyph-name="Iacute" unicode="&#xcd;" horiz-adv-x="657" 
 />
    <glyph glyph-name="Icircumflex" unicode="&#xce;" horiz-adv-x="657" 
 />
    <glyph glyph-name="Idieresis" unicode="&#xcf;" horiz-adv-x="657" 
 />
    <glyph glyph-name="Eth" unicode="&#xd0;" horiz-adv-x="1518" 
 />
    <glyph glyph-name="Ntilde" unicode="&#xd1;" horiz-adv-x="1554" 
 />
    <glyph glyph-name="Ograve" unicode="&#xd2;" horiz-adv-x="1614" 
 />
    <glyph glyph-name="Oacute" unicode="&#xd3;" horiz-adv-x="1614" 
 />
    <glyph glyph-name="Ocircumflex" unicode="&#xd4;" horiz-adv-x="1614" 
 />
    <glyph glyph-name="Otilde" unicode="&#xd5;" horiz-adv-x="1614" 
 />
    <glyph glyph-name="Odieresis" unicode="&#xd6;" horiz-adv-x="1614" 
 />
    <glyph glyph-name="multiply" unicode="&#xd7;" 
 />
    <glyph glyph-name="Oslash" unicode="&#xd8;" horiz-adv-x="1614" 
 />
    <glyph glyph-name="Ugrave" unicode="&#xd9;" horiz-adv-x="1501" 
 />
    <glyph glyph-name="Uacute" unicode="&#xda;" horiz-adv-x="1501" 
 />
    <glyph glyph-name="Ucircumflex" unicode="&#xdb;" horiz-adv-x="1501" 
 />
    <glyph glyph-name="Udieresis" unicode="&#xdc;" horiz-adv-x="1501" 
 />
    <glyph glyph-name="Yacute" unicode="&#xdd;" horiz-adv-x="1233" 
 />
    <glyph glyph-name="Thorn" unicode="&#xde;" horiz-adv-x="1120" 
 />
    <glyph glyph-name="germandbls" unicode="&#xdf;" horiz-adv-x="1251" 
 />
    <glyph glyph-name="agrave" unicode="&#xe0;" horiz-adv-x="922" 
 />
    <glyph glyph-name="aacute" unicode="&#xe1;" horiz-adv-x="922" 
 />
    <glyph glyph-name="acircumflex" unicode="&#xe2;" horiz-adv-x="922" 
 />
    <glyph glyph-name="atilde" unicode="&#xe3;" horiz-adv-x="922" 
 />
    <glyph glyph-name="adieresis" unicode="&#xe4;" horiz-adv-x="922" 
 />
    <glyph glyph-name="aring" unicode="&#xe5;" horiz-adv-x="922" 
 />
    <glyph glyph-name="ae" unicode="&#xe6;" horiz-adv-x="1454" 
 />
    <glyph glyph-name="ccedilla" unicode="&#xe7;" horiz-adv-x="905" 
 />
    <glyph glyph-name="egrave" unicode="&#xe8;" horiz-adv-x="909" 
 />
    <glyph glyph-name="eacute" unicode="&#xe9;" horiz-adv-x="909" 
 />
    <glyph glyph-name="ecircumflex" unicode="&#xea;" horiz-adv-x="909" 
 />
    <glyph glyph-name="edieresis" unicode="&#xeb;" horiz-adv-x="909" 
 />
    <glyph glyph-name="igrave" unicode="&#xec;" horiz-adv-x="514" 
 />
    <glyph glyph-name="iacute" unicode="&#xed;" horiz-adv-x="514" 
 />
    <glyph glyph-name="icircumflex" unicode="&#xee;" horiz-adv-x="514" 
 />
    <glyph glyph-name="idieresis" unicode="&#xef;" horiz-adv-x="514" 
 />
    <glyph glyph-name="eth" unicode="&#xf0;" horiz-adv-x="1139" 
 />
    <glyph glyph-name="ntilde" unicode="&#xf1;" horiz-adv-x="1108" 
 />
    <glyph glyph-name="ograve" unicode="&#xf2;" horiz-adv-x="1010" 
 />
    <glyph glyph-name="oacute" unicode="&#xf3;" horiz-adv-x="1010" 
 />
    <glyph glyph-name="ocircumflex" unicode="&#xf4;" horiz-adv-x="1010" 
 />
    <glyph glyph-name="otilde" unicode="&#xf5;" horiz-adv-x="1010" 
 />
    <glyph glyph-name="odieresis" unicode="&#xf6;" horiz-adv-x="1010" 
 />
    <glyph glyph-name="divide" unicode="&#xf7;" 
 />
    <glyph glyph-name="oslash" unicode="&#xf8;" horiz-adv-x="1010" 
 />
    <glyph glyph-name="ugrave" unicode="&#xf9;" horiz-adv-x="1059" 
 />
    <glyph glyph-name="uacute" unicode="&#xfa;" horiz-adv-x="1059" 
 />
    <glyph glyph-name="ucircumflex" unicode="&#xfb;" horiz-adv-x="1059" 
 />
    <glyph glyph-name="udieresis" unicode="&#xfc;" horiz-adv-x="1059" 
 />
    <glyph glyph-name="yacute" unicode="&#xfd;" horiz-adv-x="868" 
 />
    <glyph glyph-name="thorn" unicode="&#xfe;" horiz-adv-x="1010" 
 />
    <glyph glyph-name="ydieresis" unicode="&#xff;" horiz-adv-x="868" 
 />
    <glyph glyph-name="dotlessi" unicode="&#x131;" horiz-adv-x="514" 
 />
    <glyph glyph-name="circumflex" unicode="&#x2c6;" horiz-adv-x="1024" 
 />
    <glyph glyph-name="caron" unicode="&#x2c7;" horiz-adv-x="1024" 
 />
    <glyph glyph-name="uni02C9" unicode="&#x2c9;" horiz-adv-x="1024" 
 />
    <glyph glyph-name="breve" unicode="&#x2d8;" horiz-adv-x="1024" 
 />
    <glyph glyph-name="dotaccent" unicode="&#x2d9;" horiz-adv-x="1024" 
 />
    <glyph glyph-name="ring" unicode="&#x2da;" horiz-adv-x="1024" 
 />
    <glyph glyph-name="ogonek" unicode="&#x2db;" horiz-adv-x="1024" 
 />
    <glyph glyph-name="tilde" unicode="&#x2dc;" horiz-adv-x="1024" 
 />
    <glyph glyph-name="hungarumlaut" unicode="&#x2dd;" horiz-adv-x="1024" 
 />
    <glyph glyph-name="endash" unicode="&#x2013;" horiz-adv-x="1108" 
 />
    <glyph glyph-name="emdash" unicode="&#x2014;" horiz-adv-x="2048" 
 />
    <glyph glyph-name="quoteleft" unicode="&#x2018;" horiz-adv-x="557" 
 />
    <glyph glyph-name="quoteright" unicode="&#x2019;" horiz-adv-x="557" 
 />
    <glyph glyph-name="quotesinglbase" unicode="&#x201a;" horiz-adv-x="557" 
 />
    <glyph glyph-name="quotedblleft" unicode="&#x201c;" horiz-adv-x="910" 
 />
    <glyph glyph-name="quotedblright" unicode="&#x201d;" horiz-adv-x="910" 
 />
    <glyph glyph-name="quotedblbase" unicode="&#x201e;" horiz-adv-x="910" 
 />
    <glyph glyph-name="dagger" unicode="&#x2020;" 
 />
    <glyph glyph-name="daggerdbl" unicode="&#x2021;" 
 />
    <glyph glyph-name="bullet" unicode="&#x2022;" horiz-adv-x="1024" 
 />
    <glyph glyph-name="ellipsis" unicode="&#x2026;" horiz-adv-x="2048" 
 />
    <glyph glyph-name="guilsinglleft" unicode="&#x2039;" horiz-adv-x="631" 
 />
    <glyph glyph-name="guilsinglright" unicode="&#x203a;" horiz-adv-x="1574" 
 />
    <glyph glyph-name="fraction" unicode="&#x2044;" horiz-adv-x="342" 
 />
    <glyph glyph-name="fraction" unicode="&#x2215;" horiz-adv-x="342" 
 />
    <glyph glyph-name="franc" unicode="&#x20a3;" 
 />
    <glyph glyph-name="lira" unicode="&#x20a4;" 
 />
    <glyph glyph-name="peseta" unicode="&#x20a7;" horiz-adv-x="1608" 
 />
    <glyph glyph-name="Euro" unicode="&#x20ac;" 
 />
    <glyph glyph-name="afii61352" unicode="&#x2116;" horiz-adv-x="2271" 
 />
    <glyph glyph-name="trademark" unicode="&#x2122;" horiz-adv-x="1497" 
 />
    <glyph glyph-name="partialdiff" unicode="&#x2202;" 
 />
    <glyph glyph-name="Delta" unicode="&#x2206;" horiz-adv-x="1081" 
 />
    <glyph glyph-name="product" unicode="&#x220f;" horiz-adv-x="1515" 
 />
    <glyph glyph-name="summation" unicode="&#x2211;" horiz-adv-x="1206" 
 />
    <glyph glyph-name="minus" unicode="&#x2212;" 
 />
    <glyph glyph-name="radical" unicode="&#x221a;" 
 />
    <glyph glyph-name="infinity" unicode="&#x221e;" 
 />
    <glyph glyph-name="integral" unicode="&#x222b;" horiz-adv-x="665" 
 />
    <glyph glyph-name="approxequal" unicode="&#x2248;" 
 />
    <glyph glyph-name="lessequal" unicode="&#x2264;" 
 />
    <glyph glyph-name="greaterequal" unicode="&#x2265;" 
 />
    <glyph glyph-name="uniF001" unicode="&#xf001;" horiz-adv-x="1073" 
 />
    <glyph glyph-name="uniF001" unicode="&#xfb01;" horiz-adv-x="1073" 
 />
    <glyph glyph-name="uniF002" unicode="&#xf002;" horiz-adv-x="1081" 
 />
    <glyph glyph-name="uniF002" unicode="&#xfb02;" horiz-adv-x="1081" 
 />
  </font>
</defs>
</svg>
