<?xml version="1.0" standalone="no"?>
<!DOCTYPE svg PUBLIC "-//W3C//DTD SVG 1.1//EN" "http://www.w3.org/Graphics/SVG/1.1/DTD/svg11.dtd" >
<svg xmlns="http://www.w3.org/2000/svg" xmlns:xlink="http://www.w3.org/1999/xlink" version="1.1">
<metadata>
Created by FontForge 20190801 at Sun Nov 26 10:39:38 2017
 By Jimmy Wärting
JoannaVu
</metadata>
<defs>
<font id="MiddleEarth" horiz-adv-x="418" >
  <font-face 
    font-family="MiddleEarth"
    font-weight="500"
    font-stretch="normal"
    units-per-em="1000"
    panose-1="2 0 6 3 0 0 0 0 0 0"
    ascent="800"
    descent="-200"
    x-height="499"
    cap-height="718"
    bbox="-16 -426.474 1545.03 1077.43"
    underline-thickness="50"
    underline-position="-150"
    unicode-range="U+0020-F8FE"
  />
<missing-glyph horiz-adv-x="364" 
d="M66 33h199v600h-199v-600zM33 0v666h265v-666h-265z" />
    <glyph glyph-name=".notdef" horiz-adv-x="364" 
d="M66 33h199v600h-199v-600zM33 0v666h265v-666h-265z" />
    <glyph glyph-name=".null" horiz-adv-x="0" 
 />
    <glyph glyph-name="nonmarkingreturn" horiz-adv-x="333" 
 />
    <glyph glyph-name="space" unicode=" " horiz-adv-x="300" 
 />
    <glyph glyph-name="exclam" unicode="!" horiz-adv-x="349" 
d="M212 136q28 0 48 -20t20 -48t-20 -48t-48 -20t-48 20t-20 48t20 48t48 20zM225 688q11 -12 18 -41q2 -26 0.5 -88t-1 -172.5t5.5 -176.5q0 -2 1 -5.5t2 -5.5t3.5 -5t3.5 -5t4 -5q3 -4 4.5 -5.5t2.5 -4t-0.5 -4t-5.5 -2.5q-22 -5 -54 19t-37 35q-4 10 -7 50t-4 97
t-1 106.5t0.5 101.5t0.5 61q13 28 -2 39q-14 12 -12 17.5t15 4.5q9 -1 22 -1.5t19 -1t12.5 -2.5t9.5 -6z" />
    <glyph glyph-name="quotedbl" unicode="&#x22;" horiz-adv-x="407" 
d="M95 470q-19 156 -28 170q-2 2 -9.5 3t-13.5 2.5t-5 4.5q3 8 59.5 9t59.5 -8q1 -14 0.5 -29t-5.5 -49t-9 -56.5t-9 -52.5t-7 -36q-12 -77 -26 -2q-4 18 -7 44zM273 470q-19 155 -28 169q-2 2 -9.5 3t-13.5 2.5t-4 4.5q2 8 58.5 9.5t59.5 -7.5q1 -15 0.5 -30t-5.5 -49
t-9 -56.5t-9 -52t-6 -36.5q-13 -77 -27 -2q-3 18 -7 45z" />
    <glyph glyph-name="numbersign" unicode="#" horiz-adv-x="654" 
d="M354 440q-30 -2 -49 -3q-25 -1 -65 -3q-23 -86 -40 -153q50 5 116 9q17 67 38 150zM25 221q-11 4 18 18q13 6 44 19q13 5 25 8q18 73 41 166q-106 -2 -130 6q-12 3 18 17q12 7 44 19q30 12 71 18q6 1 13 2q14 52 33.5 127.5t23.5 90.5q1 4 8 19t9 24t-1 25q-6 14 -6 24
t5.5 12t13.5 -1l20 -7.5t17.5 -6.5t11 -7.5t7.5 -12.5q5 -22 -1 -73q-1 -13 -52 -205q53 4 114 7q12 47 30.5 117t22.5 85q0 4 7 19t9 24t-1 25q-6 14 -5.5 24t5.5 12t13 -1l20 -7.5t17.5 -6.5t11 -7.5t7.5 -12.5q5 -22 -1 -73q-1 -13 -49 -195q114 2 118 -3q7 -9 5 -30.5
t-9 -22.5q-15 -3 -132 -11q-23 -86 -39 -151q172 6 178 -1q6 -9 4 -30.5t-9 -22.5q-18 -4 -191 -15q-40 -156 -61 -255q-2 -11 -1 -21.5t2.5 -20t3 -16.5t0 -11.5t-7.5 -5.5q-24 -3 -44.5 45t-20.5 68q1 32 44 212q-59 -4 -116 -5q-38 -149 -58 -245q-3 -11 -2 -21.5t3 -20
t3.5 -16.5t-0.5 -11.5t-7 -5.5q-24 -3 -44.5 45t-20.5 68q0 31 42 206q-57 1 -74 6z" />
    <glyph glyph-name="dollar" unicode="$" horiz-adv-x="759" 
d="M351 445q0 69 1 175q-138 -12 -192 -115q-15 -28 37.5 -42.5t153.5 -17.5zM434 322q0 -117 1 -205q63 12 99 45.5t32 88.5q-3 45 -132 71zM416 795q11 -20 18 -71v-5q66 2 107 -12.5t91 -47.5q16 -11 17.5 -36t-9 -51t-26.5 -46q-5 -6 -7 -9t-7.5 -8.5l-8 -8t-7 -5
t-7 -1.5t-4.5 4.5t-2.5 11t0.5 19t3 28.5q3 18 -20.5 32.5t-54.5 21.5t-64 10q0 -26 -0.5 -86t-0.5 -90q57 -1 102.5 -10.5t82.5 -29t55.5 -54t14.5 -80.5q-5 -47 -29.5 -89.5t-61.5 -73.5t-78 -53t-83 -35q1 -29 2 -55q0 -10 3.5 -21t7.5 -19l7.5 -15t3 -11.5t-5.5 -6.5
q-23 -9 -55 32t-37 61q-1 6 -3 21q-120 -7 -236 48q-18 9 -36.5 12.5t-26.5 3.5t-12.5 4.5t-2.5 17.5q1 7 14.5 16t18.5 15q5 5 13 23t15.5 28t14.5 4q39 -29 102.5 -47.5t130.5 -19.5q-2 85 -3 225q-9 2 -26 5q-64 9 -96 15.5t-75 18.5t-60 28.5t-13 38.5q11 64 39.5 114.5
t67 81t77 48t77.5 23.5q5 1 9 2q12 47 -2 66q-10 13 -12 22t2.5 13t13 2.5t21.5 -2.5t19 -2t12.5 -4.5t9.5 -10.5z" />
    <glyph glyph-name="percent" unicode="%" horiz-adv-x="863" 
d="M655 327q25 -1 49 -13t45 -33.5t33.5 -57.5t10.5 -81q-3 -70 -38 -119t-94 -49q-63 0 -107.5 47.5t-47.5 123.5q-3 73 46 129.5t103 52.5zM177 680q24 -2 48 -13.5t45.5 -33t34 -58t10.5 -81.5q-3 -70 -38.5 -119t-93.5 -49q-64 0 -108 47.5t-48 124.5q-2 73 46.5 129
t103.5 53zM723 145q0 130 -73 136q-21 0 -35.5 -11.5t-21.5 -33.5t-10 -44.5t-3 -52.5q-1 -55 20.5 -90.5t58.5 -33.5q64 3 64 130zM245 497q0 130 -73 136v1q-22 -1 -36.5 -12.5t-21.5 -33.5t-9.5 -44t-2.5 -53q-1 -55 20 -90.5t58 -33.5q64 3 65 130zM735 727
q-1 -22 -29 -75q-7 -13 -105.5 -149t-233 -326t-211.5 -307q-9 -13 -12.5 -28t-3.5 -24t-4 -16.5t-14 -9.5q-19 -3 -31.5 10.5t-16 33.5t-3.5 38t3 24q7 19 54.5 91t118.5 173.5t134 190.5t130 182.5t77 108.5q3 4 17.5 19t23.5 28.5t7 23.5q-4 21 6.5 31.5t26.5 6.5
q9 -2 21 -4t19 -3t13.5 -3.5t9.5 -6t3 -9.5z" />
    <glyph glyph-name="ampersand" unicode="&#x26;" horiz-adv-x="848" 
d="M455 162q-70 71 -119 144l-12 -9q-108 -87 -135 -124q-22 -31 -20 -54t23 -33q43 -20 197 40q25 10 66 36zM285 316q8 3 34 16q-3 6 -7 13q-13 -14 -27 -29zM258 656q29 -137 69 -212q12 -21 27 -46q26 21 47 39l-44 -44q10 -15 20 -31q55 32 83 55q-9 -11 -26 -27
q-20 -19 -47 -42q58 -84 121 -150q28 21 53 44q30 27 86.5 75.5t61.5 46.5q4 -2 -15 -36t-58.5 -85.5t-81.5 -89.5q122 -111 224 -116q3 0 -4 -3q-28 -13 -67 -19q-62 -9 -118 31q-41 30 -84 69q-119 -82 -240 -98q-56 -8 -109 1t-80 24q-35 18 -44 38t9 53q5 7 21.5 23
t47 41.5t56 46t70.5 57.5t69 56q-90 163 -47 299zM490 589q6 -57 -87 -150q5 5 0 -2q-27 -33 -14 -33q2 0 5 1q9 2 38 16q41 21 42 15q0 -4 -14 -19q5 3 8 6q50 43 69 99q31 89 -27 159q-35 41 -87 58q-80 25 -165 -22q11 2 30 3t62.5 -5t69.5 -24t46 -45t24 -57z" />
    <glyph glyph-name="quotesingle" unicode="'" horiz-adv-x="209" 
d="M76 483q-19 156 -28 169q-2 2 -10 3.5t-13.5 2.5t-4.5 5q3 8 59 9t59 -8q2 -15 1.5 -30t-5.5 -48.5t-9 -56.5t-9.5 -52.5t-6.5 -36.5q-13 -77 -27 -2q-3 18 -6 45z" />
    <glyph glyph-name="parenleft" unicode="(" horiz-adv-x="430" 
d="M179 617q3 4 -4 6.5t-17 4.5t-18.5 5t-7.5 10t15 17q57 40 96.5 51t77.5 1q13 -4 -3 -21q-3 -3 -10 -11q-55 -56 -80 -110q-123 -262 -67 -488q13 -54 32 -100.5t38 -77.5t39 -56t36.5 -39.5t30 -24.5t19 -13.5t3.5 -4.5q-35 -8 -117 56.5t-127 148.5q-35 65 -53 142
t-16.5 162.5t35 175t98.5 166.5z" />
    <glyph glyph-name="parenright" unicode=")" horiz-adv-x="380" 
d="M180 618q63 -77 96 -167t34 -175t-16 -162t-51 -142q-45 -84 -124.5 -148.5t-114.5 -56.5q-2 1 4 4.5t18.5 13.5t29 24.5t36 39.5t38 56t37 77.5t31.5 100.5q55 226 -65 488q-25 53 -81 113q-21 22 -14 27q1 1 4 2q37 10 75.5 -1t93.5 -51q14 -10 15 -17t-7 -10t-18 -5
t-17 -4.5t-4 -6.5z" />
    <glyph glyph-name="asterisk" unicode="*" horiz-adv-x="483" 
d="M322 465q15 -11 26 -19.5t30.5 -24t28.5 -25.5t5 -11q-14 -7 -69 26q-15 9 -69 41q-6 -105 24 -132l-12 1q-11 3 -20 8q-1 1 -6 3.5t-7.5 3.5t-6.5 4t-6.5 5.5t-5.5 6t-5 7.5q-19 35 -14 107q-45 -14 -59 -23q-7 -4 -11.5 -10t-6.5 -9.5t-6 -3.5q-15 1 -42 19
q-17 12 -8 16q23 9 127 34q-22 13 -25 15q-24 13 -67.5 45.5t-35.5 41.5q6 7 53 -14.5t70 -34.5q7 -4 17 -11q5 37 1 67t-22 40q-9 5 2 11q8 5 18 1q3 -1 11.5 -3.5t11.5 -4t9 -3.5t8.5 -4t6 -4.5t5.5 -5.5q15 -20 7 -117q38 12 61 22q4 3 7.5 9t5.5 9.5t8.5 5.5t18.5 -4
q26 -12 31 -27q4 -9 -10 -12q-44 -8 -110 -24q20 -14 31 -22z" />
    <glyph glyph-name="plus" unicode="+" horiz-adv-x="650" 
d="M207 637q-1 12 30.5 14.5t63 -3t30.5 -10.5q-2 -57 -4 -277q9 -29 27 -38q51 -26 168 -19q56 3 59 -4q2 -8 -29 -32q-38 -31 -105 -40.5t-121 3.5q-1 -197 0 -290q0 -18 -44 -58q-52 -49 -67 -32q-3 4 -4 10q-1 14 3 17.5t9.5 1.5t10 3t4.5 21q-4 79 0 377q-9 16 -22 22
q-52 24 -175 17q-57 -3 -57 5t29 29q34 24 91 34t113 4q12 -1 23 -3q2 143 2 199q0 22 -5.5 29t-12 4.5t-12 0t-5.5 15.5z" />
    <glyph glyph-name="comma" unicode="," horiz-adv-x="266" 
d="M127 -130q-15 -10 -33 -16.5t-28 -6t-14 4.5l40 25q30 23 38 51.5t-5 49.5q-6 -1 -11 -1q-23 1 -38.5 18t-14.5 40t17.5 38.5t39.5 14.5q14 -1 25 -8q24 -12 38 -37.5t15.5 -55t-16 -62t-53.5 -55.5z" />
    <glyph glyph-name="hyphen" unicode="-" 
d="M16 192q-9 7 37 47q18 15 42 22q37 12 99.5 20t102 8t48.5 -5q4 -11 3 -38.5t-5 -29.5q-13 -5 -72.5 -18t-84.5 -14q-149 -6 -170 8z" />
    <glyph glyph-name="period" unicode="." horiz-adv-x="258" 
d="M129.5 115q24.5 0 42 -17.5t17.5 -42t-17.5 -41.5t-42 -17t-41.5 17t-17 41.5t17 42t41.5 17.5z" />
    <glyph glyph-name="slash" unicode="/" horiz-adv-x="406" 
d="M4 -14l244 723h89l-249 -724z" />
    <glyph glyph-name="zero" unicode="0" horiz-adv-x="662" 
d="M324 715q39 -2 74.5 -15t71 -41.5t62 -70t43 -105.5t18.5 -144q2 -135 -68.5 -228.5t-188.5 -99.5q-64 -3 -120.5 22.5t-98 74.5t-65.5 126t-23 170q1 73 27.5 134t68.5 100t94.5 59.5t104.5 17.5zM494 356q0 28 -6 64t-21 79t-35.5 78.5t-54 61.5t-72.5 29
q-57 0 -99.5 -48t-60.5 -117t-14 -142q6 -124 65.5 -215t134.5 -94q53 -2 91 42t55 111.5t17 150.5z" />
    <glyph glyph-name="one" unicode="1" horiz-adv-x="322" 
d="M82 706q-1 16 40.5 19t83.5 -4t42 -14q-1 -77 0 -171.5t2.5 -266.5t1.5 -262q0 -7 -27.5 -10t-54.5 -1t-27 7q-1 61 -8 290t-7 349q0 23 -4.5 33.5t-11.5 10.5t-13.5 -1.5t-11.5 3t-5 18.5z" />
    <glyph glyph-name="two" unicode="2" horiz-adv-x="869" 
d="M263 620q-28 0 -63.5 -6.5t-64.5 -22.5t-26 -36q9 -63 -5 -63q-9 0 -33 32q-25 32 -32 72t15 60q30 21 51 32.5t52.5 20.5t72.5 8.5t97 -10.5q29 -5 59 -16t62 -33t57.5 -50.5t44.5 -72t24 -95.5q3 -31 -37 -66l-3 -3q-7 -5 -15 -11q-47 -36 -93.5 -74.5t-104.5 -93.5
t-65 -79q-3 -13 17 -17.5t56.5 -2.5t76 5.5t80.5 3t64 -8.5l27 -9t22 -7t17 -5.5t14 -4.5t10.5 -2.5t9.5 -2t7 -0.5t7.5 0.5t7.5 1.5q12 2 43 9q84 19 84 10q0 -2 -2 -5q-16 -18 -62 -41t-63 -24q-34 0 -95 -2.5t-115.5 -5t-119 -4.5t-115 -2t-93 2t-63.5 7.5t-16 14.5
q16 32 53 75t86.5 89t90.5 81.5t89.5 75.5t58.5 48q83 80 67 111q-16 32 -40 55t-47 35t-53.5 18.5t-50 7.5t-46.5 1z" />
    <glyph glyph-name="three" unicode="3" horiz-adv-x="706" 
d="M204 543q6 6 17 17.5t42 40t60 51t65 43t62 24.5q128 19 143 -102q7 -56 -10 -93.5t-73 -85.5l-12 -10q41 -7 71.5 -33t44.5 -59.5t19.5 -65.5t0.5 -56q-9 -55 -45 -92.5t-112 -62.5q-97 -33 -285 -45q-40 -2 -46 23q-5 22 20 35q17 9 42 5q118 -19 220 7q35 9 68 36
t40 67q5 34 -18 79.5t-67 72.5q-17 10 -38 12.5t-38.5 -0.5t-43.5 -10q-28 -10 -54 -16q-141 -34 -132 2q4 17 34 40q4 0 10.5 -0.5t27.5 0.5t43 4.5t55.5 13.5t66.5 25q37 17 62 43t34 52.5t9 51t-9.5 42t-23.5 22.5q-1 0 -4 2q-100 40 -234 -133q-26 -34 -24 -1
q2 21 12 54z" />
    <glyph glyph-name="four" unicode="4" horiz-adv-x="624" 
d="M132 736q27 -5 34.5 -20.5t-0.5 -32t-19 -29.5t-18 -16q-16 -7 -27 -33.5t-13.5 -59.5t15.5 -68.5t56 -56.5q76 -42 170 -29q3 257 3 290q-1 47 54 51q43 3 132 -32q24 -9 35 -34q3 -7 -7 -7q-6 0 -24 3q-42 8 -43 -4q-10 -151 -3 -595q0 -11 -11.5 -22t-24.5 -19
q-12 -8 -58.5 -7.5t-49.5 15.5q-5 40 -3 313q-23 -2 -55 -1q-66 1 -116.5 13.5t-84.5 48.5q-76 77 -61 229q13 122 119 103z" />
    <glyph glyph-name="five" unicode="5" horiz-adv-x="832" 
d="M148 690q38 14 88 19q78 8 204.5 9.5t220.5 -2.5t97 -10q7 -12 3 -40t-13 -29q-46 -8 -383 -13q-11 -50 -25 -101q-12 -42 -19 -72.5t-9 -39.5l-1 -9q118 47 218 49q47 0 79 -6.5t57 -28.5q29 -25 40 -67t6 -85.5t-21 -83.5q-26 -68 -105.5 -122.5t-156.5 -56.5
q-88 -3 -172 16q-18 4 -18 6t6 2q78 5 157.5 34.5t136 73t70.5 87.5q38 117 -53 168q-43 26 -112.5 7t-142.5 -78q-7 -7 -36.5 -11.5t-55.5 -3t-24 11.5q36 168 76 324q-125 37 -116 50q1 1 4 2z" />
    <glyph glyph-name="six" unicode="6" horiz-adv-x="628" 
d="M249 437q-36 -35 -61 -63l-3 -3q-111 -123 -92 -193q11 -41 53 -70.5t90 -40.5t104.5 2.5t89.5 61.5q37 57 18.5 116t-72.5 110t-127 80zM253 573q3 4 19.5 20t20.5 20.5t18 19t18 21t14 20.5t13 22.5t7.5 22t4.5 25t-2 25.5t-7 28q-6 20 10 17q12 -3 65 -34
q28 -15 40.5 -26t13.5 -21q4 -59 -125 -186q-21 -21 -74 -71h2q54 -25 115.5 -66.5t95.5 -84.5q26 -34 39.5 -64.5t16.5 -67t-13 -72.5q-20 -53 -79 -86.5t-138 -35.5q-53 -2 -109 16.5t-99 48.5q-37 27 -66.5 61.5t-40.5 64.5q-11 27 -9.5 70t17.5 74q15 28 53.5 69
t99.5 96.5t79 73.5z" />
    <glyph glyph-name="seven" unicode="7" horiz-adv-x="904" 
d="M145 627q-27 -9 -25 6q4 22 50 59q45 36 71 33q43 -5 252 -0.5t303 -0.5q31 -2 36.5 -11t-4.5 -17l-11 -8q-12 -12 -32.5 -33t-79.5 -82.5t-113.5 -119.5t-120.5 -132t-114 -133t-81 -109.5t-34 -73.5q0 -4 3 -6q-21 1 -40.5 2t-29 1h-23.5q-25 0 -29 1.5t0 12.5q1 3 1 4
q11 36 42 88t74.5 109t90 114.5t97.5 114.5t87.5 96.5t69 73.5t32.5 35q17 19 -62 21q-130 4 -314 -25q-63 -10 -96 -20zM245 -1q2 -1 5 -1h5l2 1h-12z" />
    <glyph glyph-name="eight" unicode="8" horiz-adv-x="613" 
d="M252 378q-34 -33 -57 -59q-19 -21 -29.5 -34t-31 -42.5t-28 -57t-1.5 -51.5q10 -39 50 -67t85 -38t98.5 2.5t84.5 58.5q34 53 17 109t-68 104t-120 75zM110 700q20 24 60 36t80 10q12 0 32 -3.5t22 -6.5q-20 0 -31 -3q-41 -8 -58 -20q-53 -36 -70 -75.5t-9 -65.5
q14 -44 83 -101q22 21 37 35q3 4 18.5 19t19.5 19t17 18t17 20t13.5 19t12 21t7 21t4 24t-2 24t-6.5 27q-7 21 16 13q10 -3 55 -29q26 -15 38 -25t12 -20q4 -56 -118 -176q-19 -19 -68 -65l2 -2q52 -23 109 -62t89 -80q24 -32 37 -60.5t15.5 -63t-11.5 -68.5
q-20 -50 -75.5 -81.5t-129.5 -33.5q-50 -1 -103 16t-93 46q-35 25 -63 57.5t-38 60.5q-11 26 -9.5 66t16.5 69q23 44 143 156q-34 28 -50 41q-41 31 -52 76t-0.5 82.5t32.5 64.5z" />
    <glyph glyph-name="nine" unicode="9" horiz-adv-x="642" 
d="M330 280q36 36 60 64l3 3q108 125 88 195q-11 40 -54 69t-91 39t-104.5 -4.5t-88.5 -63.5q-35 -58 -15.5 -116.5t74.5 -108.5t128 -77zM329 144q-3 -4 -19 -20t-20.5 -21l-18 -20t-17.5 -21t-13.5 -20.5t-12 -23t-7 -22.5t-4 -25t2.5 -25t7 -28q7 -20 -9 -17
q-12 2 -66 32q-28 15 -41 25.5t-14 21.5q-5 58 122 188q20 21 72 72h-2q-55 24 -117 64t-97 83q-27 34 -41 64t-17.5 66.5t11.5 72.5q19 54 77.5 88t137.5 38q53 3 109 -14.5t99 -46.5q39 -26 69 -60t41 -63q12 -28 11.5 -70.5t-15.5 -73.5q-15 -30 -53 -71t-97.5 -98
t-77.5 -75z" />
    <glyph glyph-name="colon" unicode=":" horiz-adv-x="265" 
d="M143 93q22 0 37 -15.5t15 -37t-15 -37t-37 -15.5t-37.5 15.5t-15.5 37t15.5 37t37.5 15.5zM143 457q22 0 37 -15.5t15 -37t-15 -37t-37 -15.5t-37.5 15.5t-15.5 37t15.5 37t37.5 15.5z" />
    <glyph glyph-name="semicolon" unicode=";" horiz-adv-x="282" 
d="M158 -117q-15 -13 -32 -21.5t-27.5 -9.5t-14.5 2l36 31q28 28 32 58.5t-13 49.5q-6 -2 -11 -2q-23 -3 -41.5 12t-21 38.5t12.5 42t38 20.5q15 1 27 -5q26 -8 44 -31.5t24 -54t-7 -66t-46 -64.5zM143 354q-22 -3 -40 10t-21 35.5t10.5 40t35.5 21t40 -10t21 -35.5
t-10.5 -40t-35.5 -21z" />
    <glyph glyph-name="less" unicode="&#x3c;" horiz-adv-x="616" 
d="M485 631q21 -4 39.5 -51t5.5 -63q-19 -22 -53 -44.5t-73 -41t-81.5 -36t-80 -31.5t-67 -26t-45 -21t-11.5 -14q42 -51 140.5 -104.5t195.5 -72.5q15 -3 22.5 8t8 22t6 14t17.5 -15q17 -24 30.5 -61.5t1.5 -40.5q-59 -13 -130 2.5t-133 48.5t-115.5 73.5t-86.5 80
t-39 65.5q-3 16 13 35.5t49 40t67.5 39t83 39.5t80 33.5t74 29t50.5 19.5q11 5 15 18t3 25.5t1.5 21.5t11.5 7z" />
    <glyph glyph-name="equal" unicode="=" horiz-adv-x="628" 
d="M32 371q-13 5 31 31q8 5 28 15q28 16 66 23q59 12 158 19.5t161.5 7.5t77.5 -4q6 -11 4 -38.5t-8 -29.5q-19 -5 -114.5 -18.5t-134.5 -14.5q-236 -6 -269 9zM25 208q-13 6 31 32q9 5 28 15q28 15 66 23q59 11 158 19t161.5 8t77.5 -4q6 -11 4 -38.5t-8 -29.5
q-19 -6 -114.5 -19t-133.5 -14q-236 -6 -270 8z" />
    <glyph glyph-name="greater" unicode="&#x3e;" horiz-adv-x="608" 
d="M89 10q-21 4 -39.5 51.5t-4.5 63.5q19 21 53 43t73 40.5t81.5 35.5t80 31t67.5 26t45.5 20.5t11.5 13.5q-42 52 -140.5 106t-194.5 74q-15 3 -22.5 -8t-8 -22t-6.5 -14t-17 15q-18 24 -30.5 62t-1.5 40q60 13 130.5 -3t132 -49.5t115 -74.5t86.5 -80.5t38 -65.5
q3 -16 -13 -35t-49 -39.5t-67.5 -39t-83.5 -39t-80 -33t-74 -29t-51 -18.5q-11 -5 -15 -18t-3 -25.5t-1.5 -21.5t-11.5 -7z" />
    <glyph glyph-name="question" unicode="?" horiz-adv-x="536" 
d="M214.5 103q24.5 0 41.5 -17t17 -41.5t-17 -42t-41.5 -17.5t-42 17.5t-17.5 42t17.5 41.5t42 17zM186 607q-35 -11 -69.5 -35.5t-23.5 -42.5q10 -18 13 -28t1.5 -13t-8.5 -0.5t-12 5t-14 7.5q-25 14 -42.5 45t-5.5 47q30 39 68.5 59.5t119.5 33.5q25 6 60 0.5t68.5 -18
t67 -41.5t54.5 -69q9 -17 -8 -44h1q-6 -9 -16.5 -24.5t-37 -56.5t-47 -74.5t-37 -67t-16.5 -45.5q0 -15 -43 -66q-45 -51 -44 -27q0 32 20 91.5t42 109t48.5 106.5t29.5 63q9 34 -7 46q-48 36 -87.5 44.5t-74.5 -5.5z" />
    <glyph glyph-name="at" unicode="@" horiz-adv-x="929" 
d="M546 187q-12 24 -36 77t-37 78q-83 -74 -124 -146q-12 -24 -7 -40.5t21 -21.5q53 -17 143 31q4 2 17.5 10t22.5 12zM324 489q-8 0 -6 2q7 9 38 13q47 5 85 -12q25 -11 50 -48.5t46.5 -85.5t43.5 -96.5t50 -90t57 -58.5q5 -2 10 -2q23 -3 43 15q24 23 39 68t14 99
q-1 130 -79 219q-92 107 -267 108q-83 0 -165 -49q-96 -58 -142 -161q-40 -91 -26 -205q15 -117 84 -200q86 -104 197 -122q91 -14 171.5 0.5t179.5 58.5q70 31 70 28q-16 -23 -39 -38q-98 -63 -204 -87t-191 -11q-145 23 -235 133q-80 96 -97 231q-17 129 31 236
q53 121 166 189q98 59 200 58q206 -1 317 -129q93 -106 94 -258q1 -143 -63 -202q-44 -40 -98 -37q-63 3 -114 56q-10 10 -8 25q-7 10 -15 23q-2 -2 -11.5 -7.5t-12.5 -7.5t-12 -7t-12.5 -7t-11.5 -6t-12.5 -6t-12.5 -5.5t-14 -5.5l-13.5 -4.5t-15.5 -4.5q-46 -10 -79.5 -8
t-54.5 9q-26 10 -34 23t2 38q11 21 68 89.5t112 123.5q4 3 7 6q-64 114 -130 110z" />
    <glyph glyph-name="A" unicode="A" horiz-adv-x="865" 
d="M501 170q-21 41 -63 133t-64 136q-145 -129 -216 -254q-21 -42 -12.5 -70.5t36.5 -37.5q93 -30 250 55q6 3 30 17t39 21zM114 696q-13 -1 -10 4q7 11 52 20l14 2q83 8 148 -21q35 -16 69 -59.5t63 -101t58.5 -124t61 -132t64.5 -120.5t74.5 -93.5t85.5 -47.5q5 -1 -4 -5
q-37 -16 -84 -15q-83 1 -126 45q-25 26 -52 72q-4 -2 -21 -12t-22 -13l-20 -12t-21.5 -12t-20.5 -11t-22.5 -11.5t-22 -9.5t-24 -9.5t-23.5 -7.5l-26 -8q-46 -12 -95.5 -13.5t-83 3.5t-55.5 13q-30 12 -45.5 25t-20 33.5t10.5 47.5q18 37 117.5 156t195.5 215q6 5 11 10
q-52 93 -107 144t-119 48z" />
    <glyph glyph-name="B" unicode="B" horiz-adv-x="706" 
d="M243 523q0 -22 1 -74t1 -80q68 9 137 41q37 17 62 43t34 52.5t9 51t-9.5 42t-23.5 22.5q-1 0 -4 2q-90 35 -207 -100zM245 72q94 -11 183 12q35 9 68 36t40 67q5 34 -18 79.5t-67 72.5q-17 10 -38 12.5t-38.5 -0.5t-43.5 -10q-28 -10 -54 -16q-17 -4 -32 -7
q2 -174 0 -246zM5 653q11 24 38 34q95 34 141 31q16 -1 27 -4t21.5 -14.5t10.5 -31.5q-1 -27 0 -86q132 126 207 137q128 19 143 -102q7 -56 -10 -93.5t-73 -85.5l-12 -10q41 -7 71.5 -33t44.5 -59.5t19.5 -65.5t0.5 -56q-9 -55 -45 -92.5t-112 -62.5q-84 -28 -235 -41v-1
q-3 -15 -53 -16t-62 8q-15 7 -27 18.5t-12 21.5q7 444 -4 595q-1 12 -48 4q-31 -5 -32 1q0 2 1 4z" />
    <glyph glyph-name="C" unicode="C" horiz-adv-x="680" 
d="M546 624q-8 19 -55.5 21t-85.5 -8q-104 -21 -173 -94.5t-96 -194.5q-22 -94 20 -161.5t124 -91.5q40 -12 71.5 -16.5t71 1.5t70.5 28q8 6 14.5 20.5t11.5 22t14 1.5q28 -20 32 -40.5t-11 -33.5q-39 -39 -109 -59.5t-147 -19.5q-112 2 -188 54q-48 33 -77.5 90t-28.5 134
q0 66 33 143t108 153q75 75 160 110.5t151 36.5q78 0 109.5 -16t40.5 -51q10 -32 2.5 -66t-31.5 -37q-31 -3 -42.5 -1t-10.5 11.5t7.5 19.5t12 23t2.5 21z" />
    <glyph glyph-name="D" unicode="D" horiz-adv-x="809" 
d="M415 581q-96 -39 -167.5 -106t-95.5 -144.5t24 -152.5q23 -34 57.5 -55.5t71 -28.5t68.5 -7t59 6q64 14 119.5 53t69.5 93q4 14 4 28.5t-3.5 29.5t-8 29t-13 29.5t-15.5 28t-18 27.5t-18.5 25t-18.5 22.5t-16.5 19t-14.5 16.5l-4 4q-32 36 -80 83zM410 760
q24 -24 104 -97t131.5 -127t70.5 -92q22 -41 24 -97t-13 -92q-15 -40 -54 -85.5t-88 -79.5q-57 -40 -130.5 -64.5t-143.5 -21.5q-105 3 -182.5 46.5t-104.5 113.5q-15 37 -17.5 72t6.5 68.5t25.5 64t42.5 63.5q45 58 126 112.5t153 86.5q1 1 2 1q-70 66 -97 93
q-171 167 -165 245q1 14 17.5 28t52.5 35q72 41 87 44q18 3 14 -15q-1 -3 -2 -7q-6 -19 -8.5 -37.5t-3 -33t6 -33t10 -29.5t17 -29.5t19 -27t23.5 -28t24 -25.5t27 -26.5t26 -25.5z" />
    <glyph glyph-name="E" unicode="E" horiz-adv-x="708" 
d="M572 576q-14 2 -16.5 6t0.5 9t0 14.5t-15 20.5q-38 31 -91 35.5t-104.5 -15.5t-96.5 -53.5t-71 -80.5t-22 -94q17 -6 84.5 -3t176.5 2.5t156 -10.5q20 -4 26 -20t0.5 -30.5t-13.5 -18.5q-19 -7 -31 -4.5t-33 7.5t-35 4q-29 -1 -110.5 -6t-148.5 -9l-68 -4
q-2 -47 12 -88.5t39.5 -72t61 -53t75 -33t80.5 -10.5t79 12q26 9 49 18t35 13.5t20 6.5q25 5 26 -19q1 -27 -24 -44q-29 -20 -109.5 -40t-173.5 -14q-62 5 -119.5 30t-105 69.5t-75 114t-25.5 154.5q1 74 32.5 138.5t81.5 107.5t111 69.5t125 31.5q113 10 193.5 -18
t88.5 -64q7 -37 -11.5 -51t-53.5 -8z" />
    <glyph glyph-name="F" unicode="F" horiz-adv-x="734" 
d="M75 649q0 17 41.5 19.5t83.5 -4.5t42 -14q-1 -19 -2 -69q83 72 169 94q96 23 187 -4q38 -11 53.5 -20t15 -18t-1.5 -23t-28.5 -20t-65.5 0q-8 1 -15.5 7t-14 12t-24.5 11t-44 4q-50 -2 -103 -27.5t-90.5 -69.5t-39.5 -90v-5q0 -18 6 -35q8 -23 39 -34t67 -11t72 -0.5
t53 -1.5q19 -4 23 -12.5t-3.5 -16.5t-21.5 -13q-82 -23 -237 -29q-4 -374 -2 -536q1 -22 -52 -71q-62 -59 -89 -51q-10 3 -11 17q-2 18 3 23t13 2t14 3.5t5 27.5q-4 126 -2.5 257t4.5 345.5t3 288.5q0 24 -4.5 34.5t-11.5 10.5t-13.5 -1.5t-11.5 2.5t-6 18z" />
    <glyph glyph-name="G" unicode="G" horiz-adv-x="880" 
d="M665 532q10 37 -53 66q-81 37 -190 23q-150 -20 -217 -132q-50 -82 -43 -207q4 -59 50.5 -104t108 -63.5t117.5 -11.5q81 10 128.5 27.5t75.5 46.5q4 4 8 41.5t-0.5 78.5t-20.5 49q-15 8 -52.5 -9.5t-72.5 -33t-48 -4.5q-17 16 -14.5 47t20.5 37q62 21 188.5 32.5
t140.5 -1.5q17 -14 19.5 -192.5t-10.5 -197.5q-10 -15 -65 -16.5t-76 13.5q-18 12 -9 63q4 24 -3 24q-2 -1 -6 -2q-16 -9 -56 -31t-58 -30t-52.5 -20.5t-70 -17.5t-79.5 -6q-61 0 -121 25t-107 68.5t-73 107.5t-19 134q6 64 41 125.5t96.5 114.5t148.5 88.5t198 48.5t244 -5
q32 -5 51 -28t20 -51t-4 -55q-11 -40 -63 -65q-47 -23 -67 -6q-11 8 -5 29z" />
    <glyph glyph-name="H" unicode="H" horiz-adv-x="986" 
d="M39 907q31 1 78.5 19t93.5 39t65 25q13 3 19 -88t4 -191q-1 -69 -0.5 -109t2.5 -55l1 -15q149 108 288 146q43 12 74 17t65.5 2t63.5 -18q49 -24 79.5 -79.5t39.5 -117.5t1 -124q-22 -180 -221 -373q-24 -23 -55 -19q-20 5 -11 19q102 138 132 216t25 183
q-8 182 -135 216q-72 19 -160.5 -31.5t-169.5 -159.5q-8 -11 -11 -58t-4 -122.5t-2 -88.5q-1 -25 2 -39t7 -16t8.5 -4t6.5 -5q7 -19 -38.5 -40.5t-87.5 -27t-51 6.5q-11 104 -11.5 273t5 354t5.5 218q0 11 -25 7t-49.5 -11t-37.5 1q-13 11 -20 19t-9 15.5t6 11.5t27 4z" />
    <glyph glyph-name="I" unicode="I" horiz-adv-x="415" 
d="M15 686q16 9 100 22.5t101 9.5q16 -5 36.5 -20.5t25.5 -35.5q4 -17 7 -305t10 -301q3 -4 12 -6t17.5 -2.5t15 -3.5t5.5 -10q-2 -12 -50.5 -22.5t-98.5 -10.5t-54 14q-13 41 -14 294t3 302q0 7 -1 12t-4 8t-6 5t-9 2.5t-11 0.5t-13.5 -1t-15.5 -2t-18 -3t-20 -3
q-11 -2 -19 24t1 32z" />
    <glyph glyph-name="J" unicode="J" horiz-adv-x="348" 
d="M15 686q16 9 100 22.5t101 9.5q15 -5 38 -22.5t24 -33.5q1 -32 -2 -330t-5 -339q-1 -18 -1.5 -26t-4.5 -21.5t-11 -21t-20 -17t-33 -17.5t-49 -17q-30 -8 -47.5 -12t-36.5 -3t-27 12q-5 8 5.5 14t31 16.5t33.5 24.5q32 37 31 90q-3 83 -7.5 315t-3.5 281q0 7 -1 12t-4 8
t-6 5t-9 2.5t-11 0.5t-13.5 -1t-15.5 -2t-18 -3t-20 -3q-11 -2 -19 24t1 32z" />
    <glyph glyph-name="K" unicode="K" horiz-adv-x="936" 
d="M81 836q78 4 127 -7q15 -4 43.5 -24t28.5 -34q0 -101 -2 -398q6 1 17 4q36 9 54 14t47 19.5t51 35t52.5 56.5t65.5 88q15 22 16.5 41t-2 29t7.5 31q7 14 70 -4.5t73 -34.5q7 -12 -6.5 -33t-41 -46.5t-57.5 -50.5t-62.5 -53t-48.5 -46q-10 -11 31.5 -65.5t106 -123
t122 -126.5t91.5 -90q8 -7 -12 -12q-45 -10 -114 -1q-17 2 -24 6q-12 5 -73 70.5t-121 136.5q-98 115 -132 128q-15 6 -112 -38q-1 -146 -2 -170q-1 -27 -1.5 -37t-6 -25t-10 -19t-21 -12.5t-31.5 -13t-49 -14.5q-23 -6 -34.5 -8.5t-25.5 -4.5t-20 2.5t-7 14.5q0 8 5.5 11.5
t19.5 11.5t26 22q27 30 25 93q-1 30 -1.5 156.5t-0.5 270.5v183q0 14 -12.5 19.5t-51.5 10.5q-8 1 -8.5 18.5t10.5 18.5z" />
    <glyph glyph-name="L" unicode="L" horiz-adv-x="824" 
d="M36 873q11 3 120 0.5t123 -6.5q19 -6 26 -16.5t10 -31.5q3 -46 1 -204.5t1 -338.5t15 -186q27 -15 190.5 -16.5t193.5 14.5q28 14 36 10.5t-6 -29.5q0 -1 -2.5 -5.5t-3.5 -6t-3.5 -5t-5.5 -5.5t-7.5 -4.5t-10.5 -4.5q-34 -10 -161.5 -18.5t-248.5 -6.5t-129 19
q-13 27 -5 407t0 385q-9 11 -38.5 14.5t-53 2t-34.5 1.5q-6 2 -8 10t0 15z" />
    <glyph glyph-name="M" unicode="M" horiz-adv-x="1481" 
d="M28 94q79 0 87 14q35 62 95 185t111 216t98 146q11 13 29 18t35.5 2.5t33.5 -8.5t25.5 -14.5t8.5 -16.5q-1 -6 -28.5 -43t-27.5 -41q-1 -14 126.5 -157.5t127.5 -144.5q1 -4 12 20q16 33 77 176q111 257 121.5 265t39 -5.5t52 -37.5t21.5 -42q0 -6 -20.5 -44.5t-25 -52
t91 -123t194 -223t99.5 -131.5q1 -16 -78 -16.5t-91 11.5q-4 8 0 12t11 18t7 29q-1 22 -65 111.5t-133 168.5t-82 73q-10 -5 -52.5 -95t-88 -190.5t-57.5 -119.5q-9 -13 -41 -11t-40 17q-5 8 -2 24.5t8 29t12.5 32t10.5 34.5q5 26 -165 190q-9 9 -20.5 20t-18 18t-15 15
t-14 13t-12 10t-11 7t-9.5 4t-9 1.5t-9 -1.5q-16 -7 -39.5 -45.5t-60 -112t-53.5 -104.5q-81 -144 -115 -156q-35 -13 -116 25q-43 21 -40 28q1 2 5 2z" />
    <glyph glyph-name="N" unicode="N" horiz-adv-x="1102" 
d="M125 49q-6 11 0.5 106t14 227.5t2.5 209.5q0 13 -21 31t-36 32t-5 23q13 11 66 22.5t74 11.5q16 -1 37.5 -24t49 -61.5t61.5 -86t82 -100t104 -100t134 -89t165 -64.5q11 -3 11.5 104.5t-5.5 220t-12 123.5q-1 4 -29 44q-19 29 4 31q100 3 133 -36q6 -8 9 -72.5t12 -75.5
q17 -20 23.5 -83.5t4 -133t-3.5 -137t1 -95.5q2 -11 16.5 -19t14.5 -10q3 -9 -15 -15q-42 -15 -96 -2q-25 5 -39 17q-11 9 -14 28t-5 34t-12 17q-72 19 -165.5 61t-185 95t-129 76t-74.5 47q-6 4 -7 -21q0 -10 11 -182q7 -118 -4 -131q-18 -21 -58 -31t-74 -7t-40 15z" />
    <glyph glyph-name="O" unicode="O" horiz-adv-x="903" 
d="M450 715q56 -2 107 -13t103.5 -38t90 -67.5t60.5 -107t22 -150.5q-2 -139 -93 -226.5t-273 -101.5q-130 -10 -230.5 35t-155 138.5t-52.5 219.5q1 73 39 134t98.5 100t134.5 59.5t149 17.5zM705 353q0 29 -7 64.5t-27.5 79.5t-50.5 80t-81.5 62t-115.5 29
q-75 1 -131 -23.5t-87.5 -67.5t-45 -96t-9.5 -113q6 -82 50.5 -156t114.5 -118t145 -42q79 2 136 45t83 109t26 147z" />
    <glyph glyph-name="P" unicode="P" horiz-adv-x="1053" 
d="M54 637q65 12 147.5 40.5t118.5 38.5q14 3 20.5 -9.5t8 -34t2 -43.5t3 -39.5t8.5 -18.5q18 -6 42 8.5t56 38.5t72.5 48t106 38.5t142.5 8.5q43 -3 80.5 -27.5t61.5 -61.5t40.5 -82.5t18.5 -91t-4 -87.5q-19 -100 -178 -240q-33 -29 -119.5 -71t-142.5 -40q-28 1 -62.5 16
t-39.5 37q-5 18 18.5 31.5t47.5 16.5q12 2 18.5 -1.5t8 -8.5t11.5 -8t29 1q44 7 101.5 49.5t103.5 102.5q119 155 18 302q-27 40 -70 55.5t-88.5 8.5t-92.5 -23.5t-85.5 -40t-64.5 -42.5t-32 -28q-13 -20 -13.5 -136.5t5.5 -247t7 -249.5t-9 -144q-3 -9 -32.5 -29t-73 -35
t-74.5 -8q-7 2 -9.5 4.5t0 7t5 8t9.5 10.5q3 3 4.5 5t5 6t5 6.5t4.5 6t4.5 6.5t3 7t2.5 7.5t1 7.5q9 143 9.5 359t-7.5 374.5t-19 155.5q-72 -16 -135 3q-29 9 -26 19q2 8 28 13z" />
    <glyph glyph-name="Q" unicode="Q" horiz-adv-x="946" 
d="M795 701q14 -16 20 -32t13 -51q4 -53 1.5 -178.5t-2 -350.5t9.5 -358q0 -12 7 -25t14.5 -22t13.5 -17.5t5 -13.5t-11 -8q-23 -5 -53 8.5t-54 34.5t-41.5 40t-20.5 26q-9 26 -8.5 139.5t5.5 238.5t4 236t-14 132q-5 9 -29.5 27.5t-60.5 41t-80.5 38t-87 21t-83.5 -11
t-67 -57.5q-97 -150 18 -309q44 -61 99.5 -104.5t97.5 -51.5q19 -3 28.5 -0.5t11 8t7.5 9t18 1.5q23 -4 46 -17.5t18 -31.5q-6 -22 -39 -37.5t-59 -16.5q-55 -2 -138 40.5t-115 72.5q-154 144 -172 246q-6 43 -4 89t18 92.5t39 84.5t59 63t78 28q74 6 135 -5.5t98 -32.5
t65.5 -42.5t50.5 -35t40 -10.5q14 3 15 32.5t-19 48.5q-26 23 -22 34.5t29 8.5l40 -2.5t35 -2.5t23 -5t18 -12z" />
    <glyph glyph-name="R" unicode="R" horiz-adv-x="928" 
d="M121 717q73 4 118 -7q15 -3 41 -21.5t26 -31.5v-24v-54.5v-66.5q30 30 41 40.5t44 41.5t55 46.5t54 36.5t62.5 31.5t59.5 14.5q46 5 80 -5.5t52.5 -31t27.5 -48t8.5 -55t-7.5 -53.5q-11 -41 -75.5 -113.5t-138.5 -135.5q-14 -12 52 -77.5t138 -123.5q30 -24 90 -30
q9 0 9 -1.5t-5 -5.5q-26 -17 -77.5 -24t-81.5 -1q-39 8 -106.5 62t-118 110.5t-49.5 73.5q1 6 35 30t77.5 51.5t85.5 64.5t55 67q23 58 13 98t-48 57.5t-87 3.5q-29 -9 -62 -30.5t-69.5 -56.5t-57.5 -57.5t-56 -60.5q-1 -325 -5 -362q-2 -24 -5.5 -37t-14.5 -19.5t-21 -7.5
t-34 -2h-7q-51 -5 -78.5 -1t-9.5 25q7 8 20 16t19.5 16.5t5.5 23.5q-1 33 1 281t2 291q0 13 -11.5 18t-48.5 9q-7 1 -7.5 18t9.5 17z" />
    <glyph glyph-name="S" unicode="S" horiz-adv-x="759" 
d="M411 622q-29 0 -49.5 -1t-53 -7.5t-56.5 -18t-49.5 -35t-42.5 -55.5q-18 -33 54.5 -47t204.5 -13q59 0 107.5 -8.5t87.5 -28t59 -54.5t16 -83q-5 -45 -27.5 -85.5t-55 -70t-72 -53t-78 -36.5t-72.5 -17q-66 -9 -134.5 4.5t-125.5 40.5q-18 9 -36.5 12.5t-26.5 3.5
t-12.5 4.5t-2.5 17.5q1 7 14.5 16t18.5 15q5 5 13 23t15.5 28t14.5 4q35 -27 92.5 -45t119 -20.5t115.5 8t87.5 44.5t29.5 86q-2 30 -54.5 49.5t-125.5 30.5t-144.5 23t-118.5 33.5t-41 54.5q11 64 39.5 114.5t67 81t77 48t77.5 23.5q59 10 102.5 10.5t77 -8.5t55.5 -20
t54 -32q16 -11 17.5 -36t-9 -51t-26.5 -46q-5 -6 -7 -9t-7.5 -8.5l-8 -8t-7 -5t-7 -1.5t-4.5 4.5t-2.5 11t0.5 19t3 28.5q3 20 -27.5 36t-68 22.5t-67.5 6.5z" />
    <glyph glyph-name="T" unicode="T" horiz-adv-x="810" 
d="M5 602q-17 6 34 34q15 8 48 24q40 19 93 29q50 9 123.5 16t145.5 11t136.5 6t105.5 0.5t44 -5.5q8 -14 5.5 -48t-11.5 -36.5t-86.5 -7t-148 -13.5t-78.5 -22q-14 -29 -13.5 -230.5t8.5 -226.5q4 -15 12 -17t17 1.5t12 1.5q7 -4 3 -26.5t-10 -26.5q-1 -2 -30.5 -15.5
t-47.5 -31.5q-7 -7 -25 -12.5t-36 -3t-22 15.5q-6 43 -1 157t4 252t-14 161q-15 7 -61 5t-115 -1.5t-92 9.5z" />
    <glyph glyph-name="U" unicode="U" horiz-adv-x="989" 
d="M154 608q3 4 -6 4q-6 1 -22 1q-43 0 -45 6q-1 6 19 17q74 40 128.5 55.5t111.5 14.5q18 -1 5 -13q-4 -4 -18 -14q-68 -53 -94 -98q-34 -61 -44 -139.5t2.5 -144t39.5 -103.5q34 -48 97 -73.5t129 -27t124 7t95 24.5q13 5 16.5 118.5t-5 234.5t-25.5 145q-12 15 -75 38
q-30 11 -31 17q0 4 9 8q48 22 124.5 33t83.5 2q25 -28 35.5 -113.5t9.5 -176.5t4.5 -190t20.5 -145q1 -4 3.5 -7t5 -5t7 -4t7.5 -3.5t8.5 -3t8.5 -2.5t9 -2q11 -3 16 -4.5t9.5 -5t2 -8t-10.5 -11.5q-17 -12 -69.5 -25t-104.5 -7q-9 1 -15.5 8t-10 16.5t-5.5 19.5t-2.5 15.5
t-0.5 7.5q-8 -3 -21 -8t-54 -16.5t-81.5 -19.5t-96.5 -12t-105.5 1t-101.5 24t-92 53q-43 37 -74 80t-46.5 95.5t-10.5 106t39 113.5t97 116z" />
    <glyph glyph-name="V" unicode="V" horiz-adv-x="953" 
d="M55 647q3 13 25 29t49 26t52.5 14t36.5 -7q31 -27 62.5 -75.5t57 -103.5t50.5 -115t45 -113.5t36.5 -96t29 -64.5t19.5 -16q73 60 149 199.5t104 276.5q3 14 -3 23.5t-17 13t-21.5 6t-16.5 5t-2.5 9.5t20.5 19q34 25 87.5 43t56.5 2q18 -84 -4 -184.5t-69.5 -188
t-105.5 -163t-114 -122.5t-93 -54q-18 -3 -38.5 10.5t-42 42t-43 63.5t-44 82t-41.5 89t-39.5 92.5t-34 85t-28.5 74t-21 53.5q-6 16 -24.5 21.5t-36.5 4t-30.5 2.5t-10.5 17z" />
    <glyph glyph-name="W" unicode="W" horiz-adv-x="1615" 
d="M95 662q-19 -1 15 21q59 39 114 47q19 3 31 -2q37 -13 126 -177q19 -35 60 -118.5t67 -127.5t43 -51q5 -2 9.5 -2t10 2t10 5t11.5 8.5t12.5 11t14.5 15.5t16 18t19 21t22 23q48 52 95.5 120.5t55.5 90.5q6 16 5.5 25.5t-4.5 12t-8 5.5t-6 6.5t2 13.5q8 19 46 37t47 4
q13 -21 55 -115t81 -175.5t50 -87.5q15 -7 87 71t138 168.5t67 115.5q0 17 -5.5 30t-8 15.5t1.5 11.5q8 8 50.5 14.5t81.5 4.5t38 -15q-1 -17 -65 -95t-140.5 -163t-138 -160t-57.5 -87q44 -131 45 -146q2 -15 -16.5 -28.5t-43.5 -19.5t-49 -8t-33 6q-12 9 -125 347
q-48 144 -52 144q0 -3 -67 -86t-133 -169t-66 -99q1 -5 19 -46.5t19 -48.5q1 -11 -15 -24t-38 -21.5t-47 -6t-41 20.5q-40 47 -82.5 128t-75 159t-76 177.5t-79.5 163.5q-9 16 -93 15z" />
    <glyph glyph-name="X" unicode="X" horiz-adv-x="952" 
d="M173 640q-17 -1 -16 16q1 23 28 38q8 4 17 6t33.5 8t33 8t26 5t26.5 3t21 -1t22 -5q42 -17 85 -82.5t105 -185.5q75 85 112 145q6 10 6 24.5t-1.5 26t1 23t17 19.5t43.5 12q61 8 103 -9q40 -17 5 -50q-106 -98 -253 -254q31 -60 53.5 -100.5t54.5 -90t59.5 -80.5
t60.5 -54.5t66 -29.5q5 -1 -6 -6q-37 -18 -82 -20q-3 0 -24.5 -2t-29 -1.5t-24.5 1.5t-30 5.5t-26 11.5q-96 55 -193 233q-85 -99 -106 -140q-10 -21 -11.5 -42t-2 -32.5t-8.5 -16.5q-25 -15 -102 -18q-76 -4 -72 17q0 3 3 7q20 27 54.5 66t57 63t80.5 84t74 76
q-9 17 -27.5 54.5t-27.5 55t-26 49.5t-27.5 47.5t-26.5 39t-29.5 35t-29.5 23.5t-32 16t-34 2z" />
    <glyph glyph-name="Y" unicode="Y" horiz-adv-x="1074" 
d="M95 630q25 20 53 37t61 30.5t62 12t47 -22.5q27 -32 60.5 -93t62.5 -120t57 -113t51.5 -82t38.5 -18q14 9 30.5 30.5t38 58t39 68.5t48 88t49.5 92q28 50 93 84.5t99 23.5q37 -13 0 -35q-8 -4 -25 -12q-39 -20 -45 -30q-52 -85 -148 -279.5t-151 -285.5
q-39 -64 -87.5 -128t-82 -102t-61 -79t-35.5 -73q-2 -6 0 -12t5.5 -10.5t11 -10t12 -8.5l13.5 -9q13 -8 18.5 -12.5t10.5 -11t-1 -11.5t-21 -10q-47 -16 -163 -13q-131 2 -125 33q1 4 4 8q22 27 122 139.5t178 203t75 95.5q-41 64 -125.5 235.5t-140.5 291.5q-12 28 -93 30
q-46 1 -46 8q0 4 10 12z" />
    <glyph glyph-name="Z" unicode="Z" horiz-adv-x="904" 
d="M535 673q-87 0 -210.5 -14.5t-179.5 -31.5q-10 -3 -16 -3q-9 0 -9 7q0 19 44.5 56.5t72.5 37.5h4q27 -3 90 -3q45 0 166.5 2.5t181.5 2.5q72 0 117 -3q38 -2 38 -15q0 -5 -4 -10t-9 -8l-4 -3l-17.5 -17.5l-46.5 -46.5l-69.5 -69.5t-81 -82t-87 -89.5t-82.5 -86.5
t-72 -78.5t-50 -60.5t-23 -36.5q-1 -2 -1 -4q0 -16 51 -16q21 0 80.5 4t89.5 4q48 0 74 -8q11 -4 26.5 -9t22.5 -7.5t16.5 -5.5t14.5 -4t10.5 -2.5t9.5 -2t7 -0.5q7 0 14 2q13 2 40 8.5t47.5 10.5t30.5 4t10 -4q0 -2 -3 -5q-16 -18 -62 -41t-63 -23.5t-193.5 -7.5t-260.5 -7
q-164 0 -164 21q0 2 1 3q15 30 60 88.5t99 121.5t120 136.5t115.5 127t92.5 99.5t44 47q3 3 3 6q0 16 -85 16z" />
    <glyph glyph-name="bracketleft" unicode="[" horiz-adv-x="342" 
d="M270 664q4 -26 -4 -31q-7 -4 -22.5 -2t-35 -2t-24.5 -15q-10 -18 -14 -367q5 -385 14 -402q6 -10 25.5 -13.5t34.5 -1.5t22 -1q4 -2 5.5 -10t0.5 -14l-1 -7q-7 -3 -77.5 -1t-79.5 6q-25 11 -24 46q4 256 5 410q-8 337 -7 349q2 20 6 30.5t17 16.5q9 5 80 8.5t79 0.5z" />
    <glyph glyph-name="backslash" unicode="\" horiz-adv-x="440" 
d="M370 -22l-85 -1l-252 724h90z" />
    <glyph glyph-name="bracketright" unicode="]" horiz-adv-x="326" 
d="M68 -203q-4 26 4 31q8 3 23 1.5t34.5 1.5t25.5 14q10 19 17 368q-1 385 -10 402q-6 11 -25 14.5t-34.5 1.5t-22.5 2q-4 2 -5 9.5t0 14.5l1 7q7 3 77.5 0.5t80.5 -7.5q24 -11 23 -47q-7 -256 -10 -410q5 -338 3 -350q-1 -20 -5.5 -30t-17.5 -16q-9 -5 -80.5 -7.5
t-78.5 0.5z" />
    <glyph glyph-name="asciicircum" unicode="^" horiz-adv-x="530" 
d="M460 351q-3 -15 -37.5 -28t-45.5 -3q-16 14 -31.5 39t-28.5 53.5t-25 59.5t-22 58.5t-18 49t-14.5 33t-9.5 8.5q-38 -30 -78 -101t-55 -141q-3 -10 5 -15.5t16 -6t10 -5t-11 -12.5q-18 -12 -45.5 -21t-28.5 -1q-11 53 10 118t56.5 116t73.5 87t62 40q12 2 25.5 -9.5
t28 -36t27.5 -49.5t27.5 -60.5t23.5 -58.5t20.5 -54t13.5 -36q3 -9 12.5 -12t18.5 -2.5t15.5 -1.5t4.5 -8z" />
    <glyph glyph-name="underscore" unicode="_" horiz-adv-x="620" 
d="M1 -214q-14 6 29 30q10 5 32 17q30 15 69 23q61 11 164.5 19t169.5 8t81 -4q6 -12 4 -39t-9 -29q-20 -6 -119 -19t-140 -14q-246 -6 -281 8z" />
    <glyph glyph-name="grave" unicode="`" horiz-adv-x="333" 
d="M188 710l76 -189l-69 1l-131 187z" />
    <glyph glyph-name="a" unicode="a" horiz-adv-x="721" 
d="M355 308q-58 -62 -123 -145q-22 -28 -9 -59q20 -47 107 -27q32 7 71 24q25 11 42 20q-14 28 -43 92t-45 95zM174 486q-9 0 -7 3q6 9 42 14q2 1 4 1q58 6 104 -15q33 -15 65.5 -66.5t60.5 -115t58 -127t68.5 -110.5t81.5 -56q3 0 -3 -3q-26 -11 -59 -11q-58 1 -89 32
q-15 16 -32 43q-39 -24 -70 -38.5t-85 -26t-114 -7.5q-53 3 -77 32.5t-12 70.5q22 74 215 259q-74 125 -151 121z" />
    <glyph glyph-name="b" unicode="b" horiz-adv-x="703" 
d="M360 368q0 -16 0.5 -52t0.5 -56q48 7 95 29q26 12 43.5 30t23.5 36.5t6 35.5t-6.5 29t-16.5 16l-2 1q-63 24 -144 -69zM361 53q65 -7 127 9q24 7 47.5 25.5t27.5 45.5q4 24 -12 55.5t-46 50.5q-28 17 -84 1q-19 -6 -38 -11l-22 -4q2 -121 0 -172zM194 458q8 17 27 23
q66 24 98 22q41 -3 40 -35v-60q93 88 145 96q89 13 99 -72q5 -38 -6.5 -64t-51.5 -60q-4 -3 -8 -7q37 -6 61.5 -35t31 -59.5t2.5 -54.5q-7 -38 -32 -64t-78 -43q-58 -20 -163 -29v-1q-2 -10 -37 -10.5t-43 5.5q-27 14 -27 28q5 309 -3 414q0 8 -36 2q-19 -1 -19 4z" />
    <glyph glyph-name="c" unicode="c" horiz-adv-x="574" 
d="M459 435q-5 13 -38 14.5t-59 -5.5q-73 -15 -120.5 -66t-66.5 -135q-15 -65 14 -112t86 -63q96 -28 148 9q5 4 9.5 14t8 15t9.5 1q39 -27 15 -51q-27 -27 -75.5 -41.5t-102.5 -13.5q-77 2 -130 38q-33 22 -54 61.5t-20 93.5q1 107 98 205q52 52 111 77t105 25q54 1 76 -10
t28 -36q7 -22 2 -46t-22 -26q-25 -3 -32.5 1.5t-2.5 12.5t10.5 19.5t2.5 18.5z" />
    <glyph glyph-name="d" unicode="d" horiz-adv-x="684" 
d="M398 389q-64 -26 -112 -70.5t-64 -96.5t16 -102q30 -43 80 -54.5t92 -2.5q42 10 79 36t47 62q5 22 -2 48t-26 53t-29 39.5t-27 31.5q-22 25 -54 56zM395 508q16 -16 69.5 -65t87.5 -84.5t47 -60.5q14 -28 15.5 -65.5t-8.5 -61.5q-10 -26 -36 -56.5t-59 -53.5
q-37 -26 -86.5 -42.5t-96.5 -14.5q-69 2 -121 31t-70 75q-14 32 -11.5 64.5t14.5 59t35 56.5q30 38 84 74.5t102 57.5l1 1q-46 44 -64 62q-114 111 -110 163q0 10 11.5 19t35.5 23q55 32 63 29q7 -1 3 -14q-5 -13 -6.5 -25t-1.5 -22t4 -22l6.5 -19.5t11.5 -20t12.5 -18
t15.5 -18.5t16 -17t18.5 -18t17.5 -17z" />
    <glyph glyph-name="e" unicode="e" horiz-adv-x="613" 
d="M497 401q-9 2 -11 4.5t0 6t0.5 10.5t-10.5 14q-26 21 -63 24.5t-72.5 -10.5t-66.5 -37t-49 -55.5t-16 -65.5q12 -4 59 -2t122.5 1.5t107.5 -6.5q14 -3 18 -14t0.5 -21.5t-8.5 -12.5q-14 -5 -22.5 -3.5t-23 5t-23.5 3.5q-20 -1 -77 -4.5t-104 -5.5l-46 -3q-2 -39 12 -72.5
t39 -55t57.5 -36t66 -15t65.5 8.5q19 6 34.5 12t24 9.5t14.5 4.5q18 3 18 -14q0 -19 -17 -30q-20 -13 -76 -27t-120 -10q-43 3 -83 20.5t-72.5 48t-52 79t-17.5 107.5q1 68 38 122.5t90.5 83.5t113.5 34q78 7 134 -12.5t61 -43.5q5 -26 -7.5 -36t-37.5 -6z" />
    <glyph glyph-name="f" unicode="f" horiz-adv-x="629" 
d="M142 475q0 12 29.5 14t59 -3t29.5 -10q-1 -14 -2 -49q59 51 120 66q68 17 132 -2q27 -8 38 -14.5t11 -13t-1 -16.5t-20.5 -14t-46.5 0q-6 1 -12.5 7.5t-19.5 12t-38 4.5q-55 -2 -108.5 -42.5t-55.5 -89.5v-4q0 -12 4 -24q7 -22 42 -29t68 -4t54 -1q13 -3 16 -9
t-2.5 -11.5t-15.5 -8.5q-57 -17 -167 -21q-3 -265 -2 -380q1 -17 -41 -54q-51 -46 -64 -28q-2 3 -3 9q-1 12 2.5 15.5t9 1.5t10 2.5t3.5 19.5q-2 89 -1.5 182t3 244.5t2.5 204.5q0 20 -5 27t-11 4t-11.5 -0.5t-5.5 14.5z" />
    <glyph glyph-name="g" unicode="g" horiz-adv-x="682" 
d="M510 374q8 29 -44 49q-71 29 -155 8q-114 -28 -145 -134q-13 -44 -10 -99q3 -42 36 -73.5t76 -44.5t82 -8q106 13 144 52q6 7 6.5 57t-15.5 62q-13 7 -62 -18t-60 -15q-12 11 -10.5 33t14.5 26q44 15 133 23t99 -1q12 -10 13.5 -135.5t-7.5 -138.5q-7 -11 -45.5 -12
t-53.5 9q-13 9 -6 47q2 14 -2 14q-2 0 -5 -1q-11 -6 -39 -21.5t-41 -21t-37 -14.5t-49 -12.5t-56 -3.5q-58 -1 -112 28.5t-87 85.5t-26 121q4 45 28.5 88.5t68 80.5t104.5 62t139 34.5t172 -3.5q33 -5 44 -34t3 -61q-8 -30 -49 -48q-36 -15 -46 2q-3 7 0 17z" />
    <glyph glyph-name="h" unicode="h" horiz-adv-x="792" 
d="M113 601q29 1 91.5 28t73.5 29q9 2 13 -61t3 -132q-1 -48 -0.5 -76t1.5 -38l1 -11q103 75 200 102q30 8 51.5 11.5t45.5 1.5t44 -13q50 -24 71 -89t12 -134q-15 -125 -153 -259q-18 -17 -40 -12q-13 3 -6 12q71 96 91.5 150.5t17.5 126.5q-5 127 -93 151q-50 13 -112 -22
t-118 -111q-5 -8 -7.5 -40.5t-3 -85t-1.5 -61.5q-1 -18 1 -27.5t5 -11t6.5 -2.5t4.5 -4q5 -13 -26.5 -28t-61 -18.5t-35.5 4.5q-8 72 -8 189.5t3.5 246t3.5 151.5q0 8 -17 5t-34.5 -8t-26.5 1q-12 10 -17 17t-1 12.5t21 5.5z" />
    <glyph glyph-name="i" unicode="i" horiz-adv-x="406" 
d="M106 481q11 6 69.5 15.5t70.5 6.5q11 -3 25.5 -14t17.5 -25q3 -12 5 -213.5t8 -210.5q1 -3 7.5 -4.5t12.5 -2t10.5 -2.5t3.5 -7q-2 -14 -69.5 -21t-72.5 8q-15 49 -8 418q1 18 -17 18.5t-51 -6.5q-8 -1 -13.5 17.5t1.5 22.5z" />
    <glyph glyph-name="j" unicode="j" horiz-adv-x="388" 
d="M142 484q10 6 66.5 15t68.5 6q10 -3 25.5 -15t15.5 -22q1 -22 -1 -222.5t-3 -228.5q-1 -17 -2.5 -25t-9 -19.5t-24 -19.5t-44.5 -16q-20 -6 -32 -8.5t-25 -2t-18 8.5q-3 5 4 9t21 11t22 17q22 25 21 60q-10 310 -8 402q1 17 -16.5 18t-48.5 -6q-8 -1 -13.5 16.5t1.5 21.5
z" />
    <glyph glyph-name="k" unicode="k" horiz-adv-x="754" 
d="M116 566q57 3 92 -5q11 -3 31.5 -17.5t20.5 -24.5q0 -73 -1 -287l12 3q26 6 39 9.5t34 14t37 25.5t38 41t47 64q14 20 12 40t4 32q5 10 50.5 -3.5t52.5 -24.5q8 -14 -19.5 -42.5t-74 -67.5t-62.5 -55q-13 -14 85.5 -121t168.5 -172q5 -5 -9 -8q-36 -8 -86 -1q-9 2 -14 4
q-8 4 -52 51.5t-88 98.5q-70 82 -95 92q-11 5 -81 -28q-1 -105 -1 -122q-1 -20 -1.5 -27t-4.5 -17.5t-7 -13.5t-15 -9.5t-23 -9.5t-36 -10q-16 -5 -24 -7t-18.5 -3t-15 2t-4.5 11q0 5 4 7.5t14 8.5t19 16q19 22 18 67q-1 21 -1 112.5t-0.5 196t-0.5 132.5q0 9 -8.5 13
t-37.5 8q-6 1 -6 14t7 13z" />
    <glyph glyph-name="l" unicode="l" horiz-adv-x="643" 
d="M60 620q8 2 85.5 0t88.5 -5q14 -4 18.5 -11.5t6.5 -22.5q3 -33 1 -146t0.5 -241.5t11.5 -133.5q19 -11 135.5 -12t138.5 11q20 10 25.5 7.5t-3.5 -21.5q-1 -1 -2.5 -4l-2 -4t-2.5 -3.5t-4 -4t-5.5 -3.5t-7.5 -3q-43 -13 -206.5 -17.5t-178.5 13.5q-10 19 -4 290.5
t0 275.5q-9 10 -49 11l-41 1q-4 2 -5.5 7.5t-0.5 10.5z" />
    <glyph glyph-name="m" unicode="m" horiz-adv-x="1132" 
d="M15 46q60 0 66 11q27 47 72 140.5t84 163.5t74 110q14 16 39 16t43.5 -10t17.5 -19q0 -5 -21 -33t-21 -31q-1 -11 95.5 -119.5t96.5 -109.5q1 -4 13 23q13 27 55 125q83 195 92 201q13 9 50 -17t35 -47q0 -5 -15.5 -34t-19 -39.5t68.5 -93.5t147 -168.5t76 -99.5
q1 -13 -59 -13t-69 9q-3 6 0 9t8 13.5t5 22.5q-1 16 -49 84t-100.5 127.5t-62.5 55.5q-8 -4 -40 -72t-66.5 -144.5t-43.5 -90.5q-6 -10 -30.5 -8.5t-30.5 13.5q-3 15 0 25t11 31.5t11 34.5q4 19 -125 144q-7 7 -15.5 15t-14 13.5l-11.5 11.5t-10.5 9.5t-9 7.5t-8 5.5l-7 3
t-7 1t-6.5 -1.5q-12 -4 -30 -33.5t-46 -85.5t-41 -79q-60 -109 -87 -118q-28 -11 -92 21q-27 14 -26 19q1 1 4 1z" />
    <glyph glyph-name="n" unicode="n" horiz-adv-x="880" 
d="M141 13q-4 8 1 78.5t10.5 168t1.5 154.5q0 10 -15.5 23t-26.5 23.5t-4 16.5q10 9 49 17.5t54 7.5q14 0 34.5 -23t43.5 -59t60.5 -80.5t80.5 -86.5t108.5 -80t140.5 -58q7 -2 7.5 77.5t-3.5 162.5t-8 91q-4 7 -16 23q-20 26 -11 31q3 1 7 1q74 2 99 -26q4 -6 6.5 -54
t9.5 -56q16 -18 19 -91.5t-1.5 -137.5t0.5 -102q1 -8 11.5 -14t11.5 -7q2 -7 -12 -11q-34 -13 -75 -1q-15 4 -24 11q-10 9 -12.5 33t-10.5 26q-150 39 -409 206q-4 3 -4 -13q-1 -18 4 -90q9 -133 0 -144q-13 -15 -42.5 -22.5t-54.5 -5.5t-30 11z" />
    <glyph glyph-name="o" unicode="o" horiz-adv-x="721" 
d="M381 499q40 -1 76 -9t72.5 -27t63 -47.5t43 -75.5t15.5 -106q-1 -98 -65 -159.5t-193 -71.5q-139 -11 -225 65.5t-84 211.5q2 67 47 119.5t112 77.5t138 22zM561 244q0 20 -5 45.5t-19.5 56t-35.5 56t-57.5 44t-81.5 20.5q-53 0 -92.5 -17t-61.5 -47.5t-31.5 -67.5
t-6.5 -80q6 -89 72 -157t146 -65q83 2 128 62.5t45 149.5z" />
    <glyph glyph-name="p" unicode="p" horiz-adv-x="847" 
d="M116 443q46 8 105 28.5t84 27.5q15 4 18.5 -20.5t4.5 -53t7 -30.5q13 -3 30 7t40 27.5t52 34.5t75.5 27t100.5 6q51 -4 87.5 -46.5t49.5 -98t4 -104.5q-14 -71 -127 -171q-24 -21 -85.5 -50.5t-101.5 -28.5q-19 1 -43.5 11.5t-29.5 26.5q-3 12 14 21.5t34 12.5
q12 1 19 -7.5t29 -5.5q31 6 71.5 36t73.5 73q85 110 14 215q-24 34 -62.5 43t-78 -2t-77 -29t-61.5 -36t-30 -26q-12 -18 -9.5 -151t7.5 -245.5t-5 -156.5q-5 -13 -51 -36t-77 -16q-5 2 -7 3.5t-0.5 5t3.5 6t7 7.5l3.5 3.5t3.5 4t3.5 4.5t3.5 4.5t3 5l2 5t1.5 5t0.5 5.5
q7 102 7.5 255.5t-5.5 266.5t-14 111q-55 -13 -100 3q-25 9 -9 17q6 3 15 5z" />
    <glyph glyph-name="q" unicode="q" horiz-adv-x="772" 
d="M645 486q15 -17 23 -58q3 -38 1.5 -126.5t-1 -247t5.5 -252.5q1 -8 6 -17t10 -15.5t9 -12.5t3.5 -9.5t-7.5 -5.5q-21 -5 -49.5 12.5t-47.5 37t-22 26.5q-8 22 -5 150.5t6 232t-10 143.5q-5 9 -27.5 26t-57.5 34t-71.5 26.5t-73 -0.5t-58.5 -44q-68 -106 13 -218
q31 -43 70 -73.5t69 -36.5q21 -3 27.5 6t18.5 7q16 -3 32 -12.5t13 -21.5q-4 -17 -27.5 -27.5t-42.5 -11.5q-38 -1 -96.5 29t-81.5 51q-108 101 -121 173q-9 50 3.5 106t47 99t83.5 47q52 4 95.5 -4t69.5 -23t45.5 -30t35.5 -24.5t28 -7.5q10 2 10.5 23t-12.5 34
q-19 16 -16 24t21 7q11 -1 27.5 -2t24.5 -1.5t16.5 -3.5t12.5 -9z" />
    <glyph glyph-name="r" unicode="r" horiz-adv-x="844" 
d="M262 502q50 2 82 -5q10 -3 28.5 -15.5t18.5 -21.5v-17t-0.5 -38t-0.5 -46q30 30 46 44.5t49 42t64.5 42t61.5 17.5q32 4 55.5 -3.5t36.5 -21.5t19 -33t6 -38.5t-5 -37.5q-5 -17 -31 -45.5t-48.5 -48.5t-64.5 -55q-10 -9 -15 -13q-10 -9 41 -60t101 -91q20 -16 64 -21
q8 -1 2 -5q-19 -12 -54.5 -17t-56.5 0q-27 5 -73.5 43t-81.5 77t-36 51q-1 15 29.5 45t73 64t50.5 43q14 14 17.5 34t-3 36t-24.5 24t-43 1q-27 -8 -64.5 -38t-60 -53.5t-55.5 -59.5q-1 -207 -3 -232q-3 -32 -13 -38.5t-44 -7.5q-36 -3 -55 -0.5t-6 17.5q4 5 13 11
t13.5 11.5t4.5 16.5q-1 23 0.5 195.5t1.5 202.5q0 9 -8 12.5t-34 6.5q-5 1 -5 12.5t7 12.5z" />
    <glyph glyph-name="s" unicode="s" horiz-adv-x="626" 
d="M361 435q-25 0 -44 -2t-46 -9.5t-49 -25.5t-37 -46q-13 -23 38 -33t144 -9q42 0 76 -6t61.5 -19.5t41.5 -38.5t10 -58q-4 -51 -42 -93t-84 -64t-87 -28q-92 -11 -183 33q-13 6 -26 8.5t-18.5 2.5t-8.5 3t-2 12q1 5 10.5 11.5t12.5 10.5q4 3 9.5 16t10.5 20t11 3
q31 -24 84.5 -36.5t105.5 -10.5t88.5 27.5t32.5 70.5q-1 21 -38 35t-88 21.5t-101.5 15.5t-83.5 23.5t-29 38.5q8 45 28 80.5t47 57t54 33.5t55 17q41 7 71.5 7.5t54 -6t39 -14.5t38.5 -23q16 -14 10.5 -42.5t-23.5 -50.5q-3 -4 -5 -6t-5.5 -6t-5.5 -5.5t-5 -3.5t-4.5 -1
t-3 3t-2 7t0 13.5t2.5 20.5q2 14 -19.5 25t-48 16t-47.5 5z" />
    <glyph glyph-name="t" unicode="t" horiz-adv-x="674" 
d="M87 422q-12 5 24 24q10 6 34 17q28 14 65 20q57 11 154.5 17.5t159 6.5t76.5 -4q6 -9 4 -33.5t-8.5 -26t-60.5 -4.5t-103.5 -9.5t-55.5 -15.5q-10 -20 -9.5 -161.5t5.5 -159.5q3 -11 8.5 -12.5t12 1t8.5 1.5q5 -3 2 -18.5t-7 -18.5q-1 -1 -21.5 -11t-32.5 -22
q-9 -9 -31 -11.5t-28 11.5q-2 11 1.5 199t-9.5 201q-10 5 -42.5 3.5t-80.5 -1t-65 6.5z" />
    <glyph glyph-name="u" unicode="u" horiz-adv-x="771" 
d="M163 421q3 2 -6 3l-41 2q-10 3 10 14q93 51 168 49q14 0 2 -10q-3 -3 -11 -9q-48 -37 -66 -69q-35 -69 -33 -149t31 -122q25 -34 69 -52t90.5 -19t87 5t66.5 17q9 4 12 83.5t-3 165t-19 101.5q-8 10 -56 28q-24 9 -14 15q1 1 2 1q34 16 87.5 23.5t58.5 1.5
q22 -25 27.5 -112.5t7.5 -187.5t15 -139q0 -3 2 -5l3.5 -3.5t4.5 -3t5.5 -2.5t6.5 -2l6 -1.5l6 -1.5q8 -2 11 -3t6.5 -3.5t2 -5.5t-7.5 -8q-12 -9 -49 -18t-73 -5q-10 1 -16 13.5t-7 21.5t-1 12q-11 -4 -28.5 -10t-68.5 -17t-96.5 -13.5t-101 10.5t-93.5 46t-61.5 72.5
t-30.5 86t17 99t78 101.5z" />
    <glyph glyph-name="v" unicode="v" horiz-adv-x="807" 
d="M153 452q5 21 52 39.5t63 4.5q22 -19 44 -53t40 -73t35.5 -81.5t31.5 -80t26 -67.5t20.5 -45.5t13.5 -11.5q52 42 105.5 140.5t73.5 195.5q3 14 -7.5 21.5t-22 8t-14.5 6.5t16 18q23 17 61 30t40 2q13 -60 -2.5 -131t-49 -132.5t-74.5 -115t-80.5 -86.5t-65.5 -38
q-16 -3 -35 13t-39.5 49t-39 67.5t-39 83.5t-33 80t-29 74t-19.5 50q-5 12 -18 16t-25.5 3t-21.5 1.5t-7 11.5z" />
    <glyph glyph-name="w" unicode="w" horiz-adv-x="1177" 
d="M107 461q-14 0 15 18q54 33 88 30q4 0 8 -2q25 -9 87 -122q13 -24 41 -81.5t46 -88t30 -34.5q3 -2 6.5 -2t7 1.5t6.5 3.5t8 6t8.5 7.5t10 10.5t11.5 12.5t13 14.5t15 16q33 36 65.5 83t38.5 62q6 20 2 23.5t-8.5 7.5t-0.5 13q5 13 31 25t32 3q9 -15 38.5 -79.5t56 -121
t34.5 -60.5q10 -4 59.5 49.5t95 116t46.5 79.5q0 12 -4 21t-5.5 10.5t1.5 7.5q5 6 34 10.5t56 3t27 -10.5q-1 -15 -72 -97t-139.5 -161t-64.5 -90q30 -90 31 -100q2 -22 -41 -34t-57 -1q-8 6 -93 258q-27 80 -29 80q0 -1 -92 -116.5t-91 -126.5q0 -4 12.5 -32.5t12.5 -33.5
q1 -11 -17.5 -22.5t-40 -13.5t-39.5 15q-34 40 -70 115.5t-76 169.5t-70 148q-6 11 -64 9z" />
    <glyph glyph-name="x" unicode="x" horiz-adv-x="794" 
d="M227 448q-13 -1 -11 12q2 19 25 28q3 1 7 2q6 1 23 5.5t23 5.5t18.5 3.5t19 2.5t14.5 -1t15 -3q29 -12 59.5 -58t74.5 -130q52 59 78 101q5 10 5 22t-2 22t8.5 18.5t34.5 11.5q51 6 78 -9q20 -12 -2 -32q-74 -69 -177 -179q22 -42 37.5 -70t38 -63t41.5 -57t42.5 -38.5
t46.5 -20.5q3 0 -4 -4q-27 -12 -58 -14q-18 -3 -45.5 -2t-48.5 13q-67 38 -135 163q-60 -69 -74 -98q-8 -15 -9 -30t-1 -22.5t-6 -11.5q-20 -12 -80 -13q-47 -1 -42 13q0 2 2 4q14 19 38.5 46.5t40 44t56.5 59t51 53.5l-19 38t-19 38.5t-18 35t-19.5 33.5t-19 27.5t-20.5 24
t-20.5 16t-22.5 11.5t-24 2z" />
    <glyph glyph-name="y" unicode="y" horiz-adv-x="928" 
d="M211 442q18 14 38 26.5t43 22t44 8.5t33 -16q20 -23 44 -66.5t44.5 -85.5t40.5 -80t36.5 -58.5t27.5 -13.5q10 7 21.5 22t27 41t28 49t34 63t35.5 65q20 36 66.5 61t70.5 16q27 -9 -4 -26q-41 -22 -41 -23q-4 -3 -5 -5q-37 -61 -105.5 -199.5t-107.5 -203.5
q-34 -56 -80 -113t-74 -93.5t-36 -65.5q-1 -4 0.5 -8.5t4 -7.5t7.5 -7t8.5 -6.5t9.5 -6.5q10 -5 14 -8.5t7 -8t-1 -8t-15 -7.5q-38 -12 -127 -9q-84 4 -78 25q1 2 3 5q16 18 87 98.5t126.5 145t53.5 67.5q-29 46 -89.5 168t-99.5 208q-9 19 -71 21q-27 1 -28 5q-1 3 7 9z
" />
    <glyph glyph-name="z" unicode="z" horiz-adv-x="740" 
d="M463 465q-61 0 -146.5 -10t-125.5 -22q-6 -2 -10 -2q-7 0 -7 5q0 13 31 39.5t51 26.5h2q19 -3 63 -3q31 0 115.5 2t126.5 2q50 0 81 -2q27 -2 27 -11q0 -3 -3 -6.5t-6 -5.5l-3 -2l-12.5 -12.5l-32 -32l-48.5 -48.5t-56.5 -57t-60.5 -62t-57 -60t-50 -55t-35 -42t-16 -25
q-1 -1 -1 -3q0 -11 35 -11q15 0 56.5 3t62.5 3q33 0 51 -6q66 -21 75 -21q4 0 10 1q8 1 27 5.5t33.5 7.5t21.5 3q6 0 6 -3q0 -1 -1 -3q-11 -13 -43.5 -29t-44 -16.5t-134.5 -5t-181 -4.5q-114 0 -114 14q0 1 1 2q10 21 41 61.5t69 84.5t83.5 95t80 88t64.5 69t31 33q2 2 2 4
q0 11 -59 11z" />
    <glyph glyph-name="braceleft" unicode="{" 
d="M277 405q-1 -30 -2 -56.5t10 -50t36 -34.5q3 -1 7.5 -3t5.5 -2l6 -2q10 -2 8 -5q1 -2 -0.5 -3t-6.5 -3q-6 -3 -19 -6q-26 -13 -37 -38t-10 -53.5t2 -60.5q1 -20 4 -60.5t5.5 -69.5t1.5 -61t-7 -48q-8 -23 -30.5 -41t-47.5 -24q-21 -8 -64 -6t-74 16q71 4 93 20
q48 35 44 151q-1 16 -4 73.5t-4 103.5q-2 74 6 110q-8 33 -6 103q1 42 4 95.5t4 68.5q4 109 -44 141q-10 7 -34 11.5t-39.5 6t-19.5 1.5q31 13 74 15t64 -5q25 -6 47.5 -23t30.5 -39q6 -15 7 -44.5t-1.5 -57t-5.5 -65t-4 -55.5z" />
    <glyph glyph-name="bar" unicode="|" horiz-adv-x="219" 
d="M150 695v-3v-3v-4v-29q-1 -43 -1 -104q-1 -143 -1 -314q-1 -173 -2 -315v-103v-29v-4v-4v-2h-72v3v3v4v29v104q1 142 2 314l1 314l1 104v29v8v2h72z" />
    <glyph glyph-name="braceright" unicode="}" 
d="M277 405q-1 -30 -2 -56.5t10 -50t36 -34.5q3 -1 7.5 -3t5.5 -2l6 -2q10 -2 8 -5q1 -2 -0.5 -3t-6.5 -3q-6 -3 -19 -6q-26 -13 -37 -38t-10 -53.5t2 -60.5q1 -20 4 -60.5t5.5 -69.5t1.5 -61t-7 -48q-8 -23 -30.5 -41t-47.5 -24q-21 -8 -64 -6t-74 16q71 4 93 20
q48 35 44 151q-1 16 -4 73.5t-4 103.5q-2 74 6 110q-8 33 -6 103q1 42 4 95.5t4 68.5q4 109 -44 141q-10 7 -34 11.5t-39.5 6t-19.5 1.5q31 13 74 15t64 -5q25 -6 47.5 -23t30.5 -39q6 -15 7 -44.5t-1.5 -57t-5.5 -65t-4 -55.5z" />
    <glyph glyph-name="asciitilde" unicode="~" horiz-adv-x="593" 
d="M350 294q3 -2 17 -8t18 -7.5t16.5 -6t17.5 -5.5t16 -3t16.5 -0.5t15 3t15.5 6.5t13.5 12t14.5 16q12 16 13.5 -10.5t-0.5 -53.5q-2 -52 -12 -60q-30 -25 -143 21q-40 17 -88.5 38.5t-62.5 27.5q-99 42 -147 9q-22 -16 -50 -81q-1 34 11.5 71.5t28.5 61.5q14 21 38 36
t46 15q21 0 56 -13.5t85 -38t65 -30.5z" />
    <glyph glyph-name="quoteleft" unicode="&#x2018;" horiz-adv-x="317" 
d="M172 641q16 11 33.5 16.5t28 5.5t13.5 -4l-39 -25q-31 -23 -39 -51.5t5 -50.5q6 2 11 1q23 -1 38.5 -18t14.5 -39.5t-18 -38t-40 -14.5q-14 0 -25 8q-23 11 -37 36.5t-15.5 55.5t16 62.5t53.5 55.5z" />
    <glyph glyph-name="quoteright" unicode="&#x2019;" horiz-adv-x="311" 
d="M173 459q-16 -11 -34 -17t-28 -5.5t-13 4.5l39 25q31 23 38.5 51.5t-5.5 49.5q-6 -1 -11 -1q-23 1 -38.5 18t-14.5 40t18 38.5t39 14.5q14 -1 25 -8q24 -12 38 -37.5t15.5 -55t-16 -62t-52.5 -55.5z" />
    <glyph glyph-name="quotedblleft" unicode="&#x201c;" horiz-adv-x="501" 
d="M356 645q16 11 33.5 16.5t28 5.5t13.5 -4l-39 -25q-31 -23 -39 -51.5t5 -50.5q6 2 11 1q23 -1 38.5 -18t14.5 -39.5t-18 -38t-40 -14.5q-14 0 -25 8q-23 11 -37 36.5t-15.5 55.5t16 62.5t53.5 55.5zM119 642q16 10 33.5 16t28 5.5t13.5 -4.5l-40 -24q-29 -22 -37.5 -49.5
t2.5 -48.5q4 1 8 0q23 -1 38.5 -18t14.5 -39.5t-18 -38t-40 -14.5q-7 0 -14 2q-2 1 -3 1q-24 11 -39 36.5t-17 55.5t15.5 63.5t54.5 56.5z" />
    <glyph glyph-name="quotedblright" unicode="&#x201d;" horiz-adv-x="483" 
d="M108 456q-16 -10 -33.5 -16t-28 -6t-13.5 5l39 24q31 23 39 52t-6 50q-5 -2 -11 -1q-23 1 -38.5 17.5t-14.5 39.5t18 38.5t40 14.5q14 0 25 -8q23 -12 37 -37t15.5 -55t-15.5 -62.5t-53 -55.5zM344 460q-16 -10 -33.5 -16t-27.5 -5.5t-14 4.5l40 24q29 22 37.5 49.5
t-2.5 48.5q-5 -1 -8 -1q-23 1 -38.5 18t-14.5 40t17.5 38.5t39.5 14.5q8 0 15 -3q1 0 2 -1q25 -10 39.5 -35.5t16.5 -55.5t-15.5 -63t-53.5 -57z" />
    <glyph glyph-name="uni3000" unicode="&#x3000;" horiz-adv-x="1000" 
 />
    <glyph glyph-name="uniF8FE" unicode="&#xf8fe;" horiz-adv-x="300" 
 />
    </font>
</defs>
</svg>
